<svg id="clear-night" xmlns="http://www.w3.org/2000/svg" viewBox="0 0 743.61 773.53">
  <title>clear-night</title>
  <path d="M502.27,142.63c-7,27.53-14.42,55-21.77,82.39l-11.18,41.1-11.44,41c-3.83,13.67-7.35,27.43-11,41.17s-7.8,27.29-12.52,40.69-9.73,26.7-15.12,39.88-11.15,26.25-17.82,39a.91.91,0,0,1-1.72-.53c1.73-14.32,4.42-28.34,7.39-42.28s6.38-27.73,10.08-41.44,7.93-27.25,12.69-40.63,9.67-26.71,14.24-40.15l13.76-40.3,14-40.22c9.46-26.78,18.88-53.57,28.64-80.25a.9.9,0,0,1,1.72.53Z" transform="translate(-187.27 -135.18)" fill="#231f20"/>
  <path d="M399.24,465.71c11.92,25.79,23.51,51.72,35.13,77.63l17.28,38.93,17,39c5.66,13,11.62,25.91,17.48,38.85s11.18,26.09,16,39.45,9.31,26.84,13.45,40.47,7.93,27.4,10.83,41.53a.91.91,0,0,1-1.67.67c-7.69-12.2-14.47-24.77-21-37.45s-12.56-25.54-18.35-38.5-11.05-26.14-15.81-39.52-9.37-26.82-14.31-40.13l-14.77-39.94L426,546.7c-9.57-26.74-19.18-53.46-28.46-80.32a.9.9,0,0,1,1.67-.67Z" transform="translate(-187.27 -135.18)" fill="#231f20"/>
  <path d="M912.34,847.39c-33-4.35-65.9-9-98.83-13.71l-49.36-7.16-49.31-7.43c-16.43-2.5-32.93-4.67-49.4-6.94s-32.84-5.13-49.12-8.54-32.5-7.12-48.65-11.23-32.24-8.59-48.16-14a.91.91,0,0,1,.31-1.77c16.81.33,33.46,1.64,50,3.25s33.1,3.67,49.56,6,32.82,5.27,49.09,8.71,32.51,7.06,48.81,10.31l48.89,9.82,48.85,10.09c32.55,6.84,65.1,13.65,97.59,20.8a.9.9,0,0,1-.31,1.77Z" transform="translate(-187.27 -135.18)" fill="#231f20"/>
  <path d="M504.9,136l5.26,55.67q2.76,27.75,6.2,55.33c2.26,18.39,4.89,36.72,7.74,55l1.07,6.86,1.14,6.84,2.25,13.69c.78,4.56,1.54,9.12,2.27,13.69s1.58,9.12,2.33,13.69c6.26,36.46,12.66,73.21,23.69,108.74q8.18,26.65,19,52.39c3.55,8.58,7.42,17,11.43,25.4s8.25,16.63,12.58,24.82c2.23,4.06,4.39,8.16,6.68,12.18s4.55,8.06,6.89,12.05q7,12,14.33,23.72c9.83,15.61,19.94,31,30.83,45.81a561.09,561.09,0,0,0,73.1,81.63,430.31,430.31,0,0,0,42.56,34.11c1.84,1.34,3.74,2.59,5.64,3.83l5.68,3.77,5.79,3.6c1.94,1.19,3.85,2.43,5.84,3.52,3.94,2.26,7.85,4.6,11.9,6.67,2,1.05,4,2.17,6,3.18l6.12,3a299.86,299.86,0,0,0,51.22,19.28A312.4,312.4,0,0,0,927,834.1h0a.9.9,0,0,1,0,1.8,230.15,230.15,0,0,1-28.22.5c-4.73-.12-9.43-.62-14.15-1-2.37-.17-4.7-.56-7.05-.85l-3.53-.48c-1.18-.15-2.35-.32-3.52-.54-4.67-.84-9.37-1.58-14-2.68-2.32-.52-4.65-1-7-1.61l-6.9-1.86c-1.15-.32-2.31-.6-3.45-1l-3.41-1.06L829,823.22l-6.74-2.41-3.37-1.22c-1.12-.42-2.21-.89-3.32-1.33a303.45,303.45,0,0,1-51-26,363.87,363.87,0,0,1-45.73-34.39C690.3,732.5,665.92,703,644.69,671.71a533.93,533.93,0,0,1-29.42-48.37c-2.23-4.15-4.36-8.36-6.54-12.53s-4.13-8.47-6.19-12.69-4-8.54-5.91-12.81-3.76-8.61-5.64-12.91c-3.71-8.62-7.21-17.33-10.69-26-1.78-4.33-3.39-8.73-5.08-13.1-.84-2.18-1.73-4.35-2.53-6.55l-2.46-6.57c-6.58-17.52-12.81-35.14-18.89-52.83S539.22,431.9,533.61,414,522.73,378,518.45,359.75s-7.63-36.8-10.18-55.4c-1.37-9.29-2.39-18.63-3.44-28l-1.33-14c-.43-4.67-.74-9.36-1.08-14-2.57-37.43-2.68-75,.69-112.35a.9.9,0,0,1,1.8,0Z" transform="translate(-187.27 -135.18)" fill="#231f20"/>
  <path d="M647.17,344.08c5.92-8.63,12-18.27,18.56-28.55,3.31-5.13,6.75-10.4,10.36-15.66s7.34-10.53,11.14-15.72L686,290.56c-2-5.57-4-11.14-5.87-16.74s-3.8-11.19-5.68-16.8-3.66-11.24-5.5-16.85l-5.32-16.9-5.52-17.54,17.33,6.53c5.55,2.09,11.1,4.19,16.61,6.41s11,4.48,16.45,6.82c10.92,4.67,21.71,9.69,32.51,14.68l-5.66.68c10.23-6,20.49-12,30.56-18.21q7.56-4.67,15-9.51c2.47-1.63,5-3.23,7.41-4.89l7.35-5,5-3.36-.27,6c-.26,5.89-.52,11.79-.7,17.69s-.31,11.8-.38,17.7c-.17,11.81,0,23.63.1,35.45l-2.15-4.61Q812,282,826.79,291.93q7.37,5,14.66,10.11c4.86,3.4,9.69,6.85,14.51,10.3l14.74,10.57-17.85,5.29-34.11,10.1-17.07,5-17.09,4.91,7.26-6.73-5.76,16.74c-2,5.56-3.92,11.13-5.95,16.67L774,391.51l-6.28,16.56-7.31,19.27-10.49-17.1-9.29-15.14-9.17-15.21c-3-5.09-6.08-10.17-9.06-15.29s-6-10.23-8.94-15.37l5.62,3.12c-6.44-.51-12.88-1.11-19.22-1.81s-12.59-1.48-18.64-2.28-11.92-1.61-17.58-2.33q-4.24-.55-8.37-1C652.55,344.61,649.82,344.34,647.17,344.08Zm1.82-.84c3.29-.12,6.49-.24,9.7-.41s6.31-.34,9.42-.56c6.21-.43,12.18-.91,18-1.45s11.43-1,16.95-1.4,10.95-.71,16.37-.93l3.2-.13,2.43,3.25q5.32,7.13,10.57,14.29c3.52,4.77,7,9.58,10.45,14.37l10.34,14.45,10.23,14.52-17.79,2.17,5.49-16.83L760,367.8c1.89-5.59,3.88-11.14,5.82-16.72l6-16.65,1.95-5.4,5.32-1.33,17.25-4.31,17.28-4.22,34.58-8.35-3.11,15.85c-4.62-3.72-9.24-7.44-13.81-11.22s-9.13-7.58-13.66-11.41q-13.57-11.54-27-23.22l-2.42-2.1.27-2.52c1.28-11.75,2.56-23.51,3.53-35.27q.76-8.82,1.34-17.66c.4-5.89.71-11.78,1-17.67l4.69,2.62-7.28,5.07c-2.43,1.69-4.81,3.44-7.22,5.16q-7.19,5.2-14.27,10.58c-9.44,7.15-18.7,14.58-28,22l-2.17,1.73-3.49-1.05c-11.39-3.43-22.8-6.82-34.07-10.58q-8.46-2.79-16.84-5.8c-5.59-2-11.14-4.1-16.68-6.22l11.81-11,4.91,17c1.57,5.7,3.2,11.38,4.73,17.08s3.09,11.41,4.55,17.14,2.93,11.46,4.36,17.2l1,3.95-2.23,2.46c-3.62,4-7.31,7.92-11.15,11.84s-7.81,7.84-11.93,11.9C666.73,324.76,657.93,333.5,649,343.24Z" transform="translate(-187.27 -135.18)" fill="#231f20"/>
  <path d="M889.56,691.64c-.62-1.17-1.33-2.43-2.11-3.76l-2.52-4.25c-.88-1.51-1.79-3.12-2.64-4.8s-1.68-3.41-2.47-5.14l3,2.25c-3.3.06-6.6.07-9.89,0-1.65,0-3.29-.06-4.93-.13s-3.29-.12-4.93-.21l-9.54-.54,6.72-7.05q2-2.09,4.06-4.11t4.25-3.92c1.45-1.27,2.92-2.52,4.43-3.73s3-2.4,4.56-3.6l-.92,2.34c.28-3.51.6-7,.75-10.53.08-1.75.12-3.51.14-5.26v-2.63l-.07-2.62-.07-2.56,2.26,1.16a174.17,174.17,0,0,0,17.15,7.66l-2.4.09,9-6.76c1.5-1.13,3-2.2,4.55-3.3s3.06-2.15,4.61-3.19l9.16-6.13L919,632l-2.55,10.91q-1.28,5.45-2.64,10.88l-1.2-5,3.21,3.41,3.15,3.47,3.09,3.53c1,1.17,2,2.38,3,3.57l5.76,6.76-8.34,1.63c-3.44.67-6.89,1.27-10.35,1.85s-6.93,1.1-10.41,1.58l2.36-1.77c-1.24,1.83-2.52,3.63-3.83,5.37s-2.65,3.39-3.93,5l-3.67,4.45C891.55,689,890.51,690.36,889.56,691.64Zm.09-1c.94-2.07,1.78-4.07,2.53-6s1.4-3.83,2-5.61l1.74-5.09c.58-1.61,1.19-3.16,1.84-4.68l.49-1.14,1.87-.63q5-1.68,10-3.23c3.35-1,6.71-2,10.09-3l-2.59,8.38c-1.1-1.11-2.21-2.21-3.29-3.34l-3.24-3.39-3.18-3.44-3.12-3.5-2-2.29.84-2.74q1.64-5.35,3.39-10.68l3.49-10.65,6.57,5c-1.64.89-3.3,1.76-5,2.6s-3.34,1.69-5,2.48l-10.18,4.8-1.47.69-.93-.61a174.17,174.17,0,0,0-16.27-9.38l2.19-1.4.13,2.62.19,2.62q.23,2.62.55,5.23c.42,3.49,1,7,1.56,10.44l.16,1-1.08,1.35c-1.21,1.51-2.39,3.05-3.62,4.54s-2.47,3-3.75,4.42-2.59,2.85-3.93,4.23-2.72,2.72-4.12,4l-2.82-7.59q2.46.21,4.91.49c1.64.17,3.27.36,4.9.57,3.27.4,6.53.88,9.79,1.4l2.53.41.42,1.84c.31,1.36.6,2.72.83,4.15s.43,2.91.65,4.49.46,3.25.77,5S889.16,688.71,889.64,690.64Z" transform="translate(-187.27 -135.18)" fill="#231f20"/>
  <path d="M247.21,526.9c-1.71-1.33-3.54-2.72-5.47-4.14l-6.07-4.44c-2.1-1.56-4.26-3.19-6.42-4.9s-4.31-3.48-6.41-5.3l2.94.95c-2.47.51-4.94,1-7.41,1.44s-4.95.89-7.42,1.34c-5,.84-9.92,1.65-14.89,2.37l-8.78,1.27,4.2-7.87c1.11-2.09,2.27-4.14,3.44-6.2s2.39-4.08,3.63-6.1,2.51-4,3.8-6l3.9-6,0,3-3.17-6.7c-1.09-2.21-2.14-4.45-3.26-6.64q-3.34-6.6-7-13l-1.62-2.8,3.19.57q3.76.67,7.54,1.27t7.57,1.1l7.6.93,7.62.83-2.48.75,4.81-5.37c1.61-1.79,3.19-3.6,4.83-5.35s3.24-3.55,4.9-5.28,3.32-3.46,5-5.19l5.8-6,1.79,8.44,3,14.08,2.9,14.09-2.94-3.85,6.93,3.24c2.29,1.11,4.6,2.19,6.88,3.34s4.57,2.25,6.84,3.43l6.8,3.5,9.75,5-9.87,4c-4.57,1.84-9.14,3.67-13.74,5.42L259,498.83c-2.3.89-4.63,1.7-6.94,2.55l2-2.64c-.51,2.57-1,5.14-1.64,7.65s-1.2,5-1.83,7.35l-1.81,6.84Q247.89,523.85,247.21,526.9Zm-.33-.94q.23-4,.29-7.73c0-2.51,0-4.89,0-7.23v-6.72c0-2.18.09-4.3.18-6.42l.07-1.63,1.89-1c2.18-1.16,4.33-2.36,6.53-3.48l6.56-3.4c4.38-2.27,8.79-4.45,13.2-6.63l-.11,9-7-3.09c-2.34-1-4.64-2.11-7-3.17s-4.61-2.17-6.92-3.26l-6.87-3.35-2.53-1.24L244.8,474l-2.21-14.22-2.12-14.23,7.59,2.45c-1.78,1.61-3.56,3.22-5.36,4.8s-3.63,3.14-5.45,4.71-3.68,3.09-5.52,4.64l-5.54,4.61-1.27,1.06-1.21-.31-7.43-1.9-7.45-1.79q-3.73-.85-7.48-1.62t-7.51-1.45l1.57-2.23q3.7,6.38,7.77,12.56c1.35,2.06,2.77,4.08,4.15,6.13l4.24,6.07.83,1.19-.79,1.8-2.85,6.52q-1.45,3.25-3,6.46t-3.12,6.38c-1.08,2.1-2.17,4.2-3.31,6.27l-4.58-6.6c5-.68,10-1.27,15-1.83,2.5-.25,5-.53,7.5-.76s5-.46,7.52-.65l1.93-.15,1,1.1c1.53,1.66,3,3.37,4.47,5.13s2.94,3.61,4.46,5.53,3.11,3.93,4.81,6S245,523.81,246.88,526Z" transform="translate(-187.27 -135.18)" fill="#231f20"/>
  <path d="M372.09,758.32c-3.5-.5-7.13-1-10.86-1.45l-11.52-1.38c-4-.5-8-1-12.05-1.58s-8.17-1.26-12.25-1.93l3-.82q-4.17,4.07-8.41,8.06c-2.81,2.68-5.66,5.31-8.49,8q-8.53,7.92-17.17,15.72l-6.68,6-.8-9q-.5-5.61-.89-11.23t-.67-11.25l-.48-11.27-.36-11.28,1.61,2.45-9.86-6c-3.31-2-6.59-3.94-9.91-5.86s-6.65-3.82-10-5.69-6.73-3.69-10.11-5.5l-2.74-1.47,2.86-1.24L257.11,707l10.71-4.81,10.64-5,10.6-5.06-1.64,2,1.88-11.2c.64-3.73,1.23-7.47,1.91-11.2s1.3-7.46,2-11.17l2.13-11.15,1.63-8.55,6.12,6.47,15.6,16.5,15.53,16.56-4.59-1.7q11.63-1.55,23.28-2.92l11.66-1.31,11.67-1.23,10.58-1.11-5.74,8.68-6.35,9.6c-2.13,3.19-4.21,6.42-6.37,9.59l-6.45,9.54c-2.14,3.19-4.33,6.34-6.51,9.5l.19-3.25c1.53,3.71,3.09,7.41,4.51,11.12s2.84,7.37,4.17,11l3.91,10.52C369.5,751.8,370.78,755.11,372.09,758.32Zm-.79-.62c-1.89-3.58-3.8-7.08-5.7-10.46s-3.79-6.67-5.67-9.87l-5.41-9.42c-1.78-3.09-3.41-6.18-5.07-9.27l-.8-1.48,1-1.76c1.88-3.35,3.74-6.71,5.66-10l5.72-10c1.89-3.34,3.87-6.63,5.8-9.94l5.82-9.93,4.84,7.57-11.62,1.67-11.63,1.59q-11.63,1.54-23.29,2.87l-2.8.33-1.78-2-15-17-14.94-17.1,7.75-2.08-2.68,11c-.89,3.68-1.86,7.34-2.79,11s-1.94,7.32-2.9,11l-2.93,11-.41,1.52-1.23.46-11,4.08-11,4.19-10.9,4.34-10.84,4.49.12-2.71c3.39,1.79,6.79,3.58,10.21,5.31s6.85,3.45,10.31,5.13,6.93,3.3,10.4,5L289,732l1.36.63.25,1.81,1.56,11.17,1.44,11.18q.67,5.6,1.24,11.2t1,11.22l-7.48-3q8.72-7.71,17.56-15.28c3-2.51,5.9-5,8.88-7.53s6-5,9-7.44l1.49-1.21,1.55.4c3.51.9,7,1.79,10.54,2.79l10.74,3.14c3.67,1.13,7.4,2.23,11.27,3.35S367.2,756.63,371.3,757.7Z" transform="translate(-187.27 -135.18)" fill="#231f20"/>
  <path d="M623,883.8c-1.77,1.29-3.64,2.7-5.58,4.2s-4,3-6.15,4.45l.48-.79c-.13,2.4-.33,4.79-.49,7.19s-.4,4.78-.63,7.17l-.25,2.68-2-1.81-2.51-2.29-2.46-2.34q-2.43-2.37-4.82-4.78l.87.2c-2.29.54-4.58,1.08-6.86,1.67s-4.54,1.22-6.8,1.87l-.93.27.39-.88q1.47-3.34,2.86-6.72t2.69-6.8l0,.77-3.74-5.78c-1.24-1.93-2.44-3.88-3.65-5.83l-1.33-2.15,2.58.11,13.75.6-1.33.58,2.3-2.83c.77-.94,1.53-1.9,2.31-2.83l4.7-5.59,2.12-2.51.5,3.18,1.09,7c.34,2.33.7,4.65,1,7l-.63-.76c2.22,1,4.4,2,6.48,3S621.06,882.95,623,883.8Zm-.3,0c-2.32-.77-4.53-1.45-6.7-2.06s-4.17-1.22-6.18-1.89l-.49-.16-.14-.6c-.54-2.29-1-4.59-1.56-6.89l-1.48-6.9,2.61.67-4.53,5.73c-.75,1-1.54,1.89-2.31,2.83l-2.32,2.82L599,878l-.8-.06-13.72-1.07,1.25-2c1.11,2,2.23,4,3.31,6L592.3,887l.22.42-.18.35q-1.64,3.27-3.23,6.56T586.06,901l-.54-.62c2.25-.68,4.5-1.37,6.73-2.11s4.45-1.53,6.67-2.31l.43-.15.44.35q2.65,2.13,5.25,4.31l2.58,2.21,2.53,2.26-2.24.87c.24-2.39.52-4.77.78-7.16s.57-4.77.92-7.14l.08-.55.4-.24c1.93-1.14,3.91-2.19,6-3.29S620.39,885.13,622.66,883.83Z" transform="translate(-187.27 -135.18)" fill="#231f20"/>
  <path d="M752.65,583.67c-.65,1.95-1.31,4.17-2,6.56s-1.58,4.95-2.57,7.43l0-1.55q3.7,6.19,7,12.58l2.06,3.94-4.42-.69q-3.35-.52-6.67-1.26t-6.61-1.61l1.4-.51c-1.7,1.64-3.38,3.29-5,5s-3.23,3.43-4.76,5.21L730,620l-.26-1.6q-.29-1.8-.62-3.6l-.7-3.59c-.51-2.39-1.05-4.76-1.62-7.14l.76,1c-2.12-.88-4.26-1.73-6.37-2.64-1.05-.46-2.12-.89-3.16-1.38l-3.13-1.42-3.8-1.73,3.71-2.26q5.88-3.58,11.79-7.1l-1.34,2c.45-4.85,1.07-9.68,1.78-14.5l.81-5.45,3.45,4c1.53,1.78,3.09,3.55,4.61,5.35s3,3.6,4.51,5.45l-1.57-.49c2.49-.36,5-.59,7.35-.76S750.68,583.89,752.65,583.67Zm-.39.31c-2.46.71-4.73,1.49-6.81,2.26s-4,1.45-5.93,2l-.77.22-.8-.72c-1.76-1.57-3.47-3.2-5.19-4.81s-3.39-3.27-5.08-4.9l4.26-1.43c-.35,4.86-.81,9.71-1.43,14.54l-.18,1.4-1.16.62q-6.07,3.24-12.18,6.41l-.09-4,3,1.67c1,.55,2,1.15,3,1.72,2,1.16,3.94,2.37,5.91,3.55l.71.43,0,.62c.19,2.43.4,4.87.66,7.29l.44,3.63c.16,1.21.34,2.41.53,3.61l-1.31-.37q2.3-2.67,4.44-5.48c1.42-1.88,2.8-3.79,4.17-5.72l.41-.58,1,.07q3.4.23,6.78.55t6.73.9l-2.36,3.25q-3.27-6.42-6.17-13l-.39-.89.35-.66c1-1.88,2.18-3.7,3.43-5.67S750.91,586.4,752.26,584Z" transform="translate(-187.27 -135.18)" fill="#231f20"/>
</svg>
