<svg xmlns="http://www.w3.org/2000/svg">

	<!-- clear night icon -->
	<symbol id="clear-night" viewBox="0 0 743.61 773.53">
		<title>clear-night</title>
		<path d="M502.27,142.63c-7,27.53-14.42,55-21.77,82.39l-11.18,41.1-11.44,41c-3.83,13.67-7.35,27.43-11,41.17s-7.8,27.29-12.52,40.69-9.73,26.7-15.12,39.88-11.15,26.25-17.82,39a.91.91,0,0,1-1.72-.53c1.73-14.32,4.42-28.34,7.39-42.28s6.38-27.73,10.08-41.44,7.93-27.25,12.69-40.63,9.67-26.71,14.24-40.15l13.76-40.3,14-40.22c9.46-26.78,18.88-53.57,28.64-80.25a.9.9,0,0,1,1.72.53Z" transform="translate(-187.27 -135.18)" fill="#231f20"/>
		<path d="M399.24,465.71c11.92,25.79,23.51,51.72,35.13,77.63l17.28,38.93,17,39c5.66,13,11.62,25.91,17.48,38.85s11.18,26.09,16,39.45,9.31,26.84,13.45,40.47,7.93,27.4,10.83,41.53a.91.91,0,0,1-1.67.67c-7.69-12.2-14.47-24.77-21-37.45s-12.56-25.54-18.35-38.5-11.05-26.14-15.81-39.52-9.37-26.82-14.31-40.13l-14.77-39.94L426,546.7c-9.57-26.74-19.18-53.46-28.46-80.32a.9.9,0,0,1,1.67-.67Z" transform="translate(-187.27 -135.18)" fill="#231f20"/>
		<path d="M912.34,847.39c-33-4.35-65.9-9-98.83-13.71l-49.36-7.16-49.31-7.43c-16.43-2.5-32.93-4.67-49.4-6.94s-32.84-5.13-49.12-8.54-32.5-7.12-48.65-11.23-32.24-8.59-48.16-14a.91.91,0,0,1,.31-1.77c16.81.33,33.46,1.64,50,3.25s33.1,3.67,49.56,6,32.82,5.27,49.09,8.71,32.51,7.06,48.81,10.31l48.89,9.82,48.85,10.09c32.55,6.84,65.1,13.65,97.59,20.8a.9.9,0,0,1-.31,1.77Z" transform="translate(-187.27 -135.18)" fill="#231f20"/>
		<path d="M504.9,136l5.26,55.67q2.76,27.75,6.2,55.33c2.26,18.39,4.89,36.72,7.74,55l1.07,6.86,1.14,6.84,2.25,13.69c.78,4.56,1.54,9.12,2.27,13.69s1.58,9.12,2.33,13.69c6.26,36.46,12.66,73.21,23.69,108.74q8.18,26.65,19,52.39c3.55,8.58,7.42,17,11.43,25.4s8.25,16.63,12.58,24.82c2.23,4.06,4.39,8.16,6.68,12.18s4.55,8.06,6.89,12.05q7,12,14.33,23.72c9.83,15.61,19.94,31,30.83,45.81a561.09,561.09,0,0,0,73.1,81.63,430.31,430.31,0,0,0,42.56,34.11c1.84,1.34,3.74,2.59,5.64,3.83l5.68,3.77,5.79,3.6c1.94,1.19,3.85,2.43,5.84,3.52,3.94,2.26,7.85,4.6,11.9,6.67,2,1.05,4,2.17,6,3.18l6.12,3a299.86,299.86,0,0,0,51.22,19.28A312.4,312.4,0,0,0,927,834.1h0a.9.9,0,0,1,0,1.8,230.15,230.15,0,0,1-28.22.5c-4.73-.12-9.43-.62-14.15-1-2.37-.17-4.7-.56-7.05-.85l-3.53-.48c-1.18-.15-2.35-.32-3.52-.54-4.67-.84-9.37-1.58-14-2.68-2.32-.52-4.65-1-7-1.61l-6.9-1.86c-1.15-.32-2.31-.6-3.45-1l-3.41-1.06L829,823.22l-6.74-2.41-3.37-1.22c-1.12-.42-2.21-.89-3.32-1.33a303.45,303.45,0,0,1-51-26,363.87,363.87,0,0,1-45.73-34.39C690.3,732.5,665.92,703,644.69,671.71a533.93,533.93,0,0,1-29.42-48.37c-2.23-4.15-4.36-8.36-6.54-12.53s-4.13-8.47-6.19-12.69-4-8.54-5.91-12.81-3.76-8.61-5.64-12.91c-3.71-8.62-7.21-17.33-10.69-26-1.78-4.33-3.39-8.73-5.08-13.1-.84-2.18-1.73-4.35-2.53-6.55l-2.46-6.57c-6.58-17.52-12.81-35.14-18.89-52.83S539.22,431.9,533.61,414,522.73,378,518.45,359.75s-7.63-36.8-10.18-55.4c-1.37-9.29-2.39-18.63-3.44-28l-1.33-14c-.43-4.67-.74-9.36-1.08-14-2.57-37.43-2.68-75,.69-112.35a.9.9,0,0,1,1.8,0Z" transform="translate(-187.27 -135.18)" fill="#231f20"/>
		<path d="M647.17,344.08c5.92-8.63,12-18.27,18.56-28.55,3.31-5.13,6.75-10.4,10.36-15.66s7.34-10.53,11.14-15.72L686,290.56c-2-5.57-4-11.14-5.87-16.74s-3.8-11.19-5.68-16.8-3.66-11.24-5.5-16.85l-5.32-16.9-5.52-17.54,17.33,6.53c5.55,2.09,11.1,4.19,16.61,6.41s11,4.48,16.45,6.82c10.92,4.67,21.71,9.69,32.51,14.68l-5.66.68c10.23-6,20.49-12,30.56-18.21q7.56-4.67,15-9.51c2.47-1.63,5-3.23,7.41-4.89l7.35-5,5-3.36-.27,6c-.26,5.89-.52,11.79-.7,17.69s-.31,11.8-.38,17.7c-.17,11.81,0,23.63.1,35.45l-2.15-4.61Q812,282,826.79,291.93q7.37,5,14.66,10.11c4.86,3.4,9.69,6.85,14.51,10.3l14.74,10.57-17.85,5.29-34.11,10.1-17.07,5-17.09,4.91,7.26-6.73-5.76,16.74c-2,5.56-3.92,11.13-5.95,16.67L774,391.51l-6.28,16.56-7.31,19.27-10.49-17.1-9.29-15.14-9.17-15.21c-3-5.09-6.08-10.17-9.06-15.29s-6-10.23-8.94-15.37l5.62,3.12c-6.44-.51-12.88-1.11-19.22-1.81s-12.59-1.48-18.64-2.28-11.92-1.61-17.58-2.33q-4.24-.55-8.37-1C652.55,344.61,649.82,344.34,647.17,344.08Zm1.82-.84c3.29-.12,6.49-.24,9.7-.41s6.31-.34,9.42-.56c6.21-.43,12.18-.91,18-1.45s11.43-1,16.95-1.4,10.95-.71,16.37-.93l3.2-.13,2.43,3.25q5.32,7.13,10.57,14.29c3.52,4.77,7,9.58,10.45,14.37l10.34,14.45,10.23,14.52-17.79,2.17,5.49-16.83L760,367.8c1.89-5.59,3.88-11.14,5.82-16.72l6-16.65,1.95-5.4,5.32-1.33,17.25-4.31,17.28-4.22,34.58-8.35-3.11,15.85c-4.62-3.72-9.24-7.44-13.81-11.22s-9.13-7.58-13.66-11.41q-13.57-11.54-27-23.22l-2.42-2.1.27-2.52c1.28-11.75,2.56-23.51,3.53-35.27q.76-8.82,1.34-17.66c.4-5.89.71-11.78,1-17.67l4.69,2.62-7.28,5.07c-2.43,1.69-4.81,3.44-7.22,5.16q-7.19,5.2-14.27,10.58c-9.44,7.15-18.7,14.58-28,22l-2.17,1.73-3.49-1.05c-11.39-3.43-22.8-6.82-34.07-10.58q-8.46-2.79-16.84-5.8c-5.59-2-11.14-4.1-16.68-6.22l11.81-11,4.91,17c1.57,5.7,3.2,11.38,4.73,17.08s3.09,11.41,4.55,17.14,2.93,11.46,4.36,17.2l1,3.95-2.23,2.46c-3.62,4-7.31,7.92-11.15,11.84s-7.81,7.84-11.93,11.9C666.73,324.76,657.93,333.5,649,343.24Z" transform="translate(-187.27 -135.18)" fill="#231f20"/>
		<path d="M889.56,691.64c-.62-1.17-1.33-2.43-2.11-3.76l-2.52-4.25c-.88-1.51-1.79-3.12-2.64-4.8s-1.68-3.41-2.47-5.14l3,2.25c-3.3.06-6.6.07-9.89,0-1.65,0-3.29-.06-4.93-.13s-3.29-.12-4.93-.21l-9.54-.54,6.72-7.05q2-2.09,4.06-4.11t4.25-3.92c1.45-1.27,2.92-2.52,4.43-3.73s3-2.4,4.56-3.6l-.92,2.34c.28-3.51.6-7,.75-10.53.08-1.75.12-3.51.14-5.26v-2.63l-.07-2.62-.07-2.56,2.26,1.16a174.17,174.17,0,0,0,17.15,7.66l-2.4.09,9-6.76c1.5-1.13,3-2.2,4.55-3.3s3.06-2.15,4.61-3.19l9.16-6.13L919,632l-2.55,10.91q-1.28,5.45-2.64,10.88l-1.2-5,3.21,3.41,3.15,3.47,3.09,3.53c1,1.17,2,2.38,3,3.57l5.76,6.76-8.34,1.63c-3.44.67-6.89,1.27-10.35,1.85s-6.93,1.1-10.41,1.58l2.36-1.77c-1.24,1.83-2.52,3.63-3.83,5.37s-2.65,3.39-3.93,5l-3.67,4.45C891.55,689,890.51,690.36,889.56,691.64Zm.09-1c.94-2.07,1.78-4.07,2.53-6s1.4-3.83,2-5.61l1.74-5.09c.58-1.61,1.19-3.16,1.84-4.68l.49-1.14,1.87-.63q5-1.68,10-3.23c3.35-1,6.71-2,10.09-3l-2.59,8.38c-1.1-1.11-2.21-2.21-3.29-3.34l-3.24-3.39-3.18-3.44-3.12-3.5-2-2.29.84-2.74q1.64-5.35,3.39-10.68l3.49-10.65,6.57,5c-1.64.89-3.3,1.76-5,2.6s-3.34,1.69-5,2.48l-10.18,4.8-1.47.69-.93-.61a174.17,174.17,0,0,0-16.27-9.38l2.19-1.4.13,2.62.19,2.62q.23,2.62.55,5.23c.42,3.49,1,7,1.56,10.44l.16,1-1.08,1.35c-1.21,1.51-2.39,3.05-3.62,4.54s-2.47,3-3.75,4.42-2.59,2.85-3.93,4.23-2.72,2.72-4.12,4l-2.82-7.59q2.46.21,4.91.49c1.64.17,3.27.36,4.9.57,3.27.4,6.53.88,9.79,1.4l2.53.41.42,1.84c.31,1.36.6,2.72.83,4.15s.43,2.91.65,4.49.46,3.25.77,5S889.16,688.71,889.64,690.64Z" transform="translate(-187.27 -135.18)" fill="#231f20"/>
		<path d="M247.21,526.9c-1.71-1.33-3.54-2.72-5.47-4.14l-6.07-4.44c-2.1-1.56-4.26-3.19-6.42-4.9s-4.31-3.48-6.41-5.3l2.94.95c-2.47.51-4.94,1-7.41,1.44s-4.95.89-7.42,1.34c-5,.84-9.92,1.65-14.89,2.37l-8.78,1.27,4.2-7.87c1.11-2.09,2.27-4.14,3.44-6.2s2.39-4.08,3.63-6.1,2.51-4,3.8-6l3.9-6,0,3-3.17-6.7c-1.09-2.21-2.14-4.45-3.26-6.64q-3.34-6.6-7-13l-1.62-2.8,3.19.57q3.76.67,7.54,1.27t7.57,1.1l7.6.93,7.62.83-2.48.75,4.81-5.37c1.61-1.79,3.19-3.6,4.83-5.35s3.24-3.55,4.9-5.28,3.32-3.46,5-5.19l5.8-6,1.79,8.44,3,14.08,2.9,14.09-2.94-3.85,6.93,3.24c2.29,1.11,4.6,2.19,6.88,3.34s4.57,2.25,6.84,3.43l6.8,3.5,9.75,5-9.87,4c-4.57,1.84-9.14,3.67-13.74,5.42L259,498.83c-2.3.89-4.63,1.7-6.94,2.55l2-2.64c-.51,2.57-1,5.14-1.64,7.65s-1.2,5-1.83,7.35l-1.81,6.84Q247.89,523.85,247.21,526.9Zm-.33-.94q.23-4,.29-7.73c0-2.51,0-4.89,0-7.23v-6.72c0-2.18.09-4.3.18-6.42l.07-1.63,1.89-1c2.18-1.16,4.33-2.36,6.53-3.48l6.56-3.4c4.38-2.27,8.79-4.45,13.2-6.63l-.11,9-7-3.09c-2.34-1-4.64-2.11-7-3.17s-4.61-2.17-6.92-3.26l-6.87-3.35-2.53-1.24L244.8,474l-2.21-14.22-2.12-14.23,7.59,2.45c-1.78,1.61-3.56,3.22-5.36,4.8s-3.63,3.14-5.45,4.71-3.68,3.09-5.52,4.64l-5.54,4.61-1.27,1.06-1.21-.31-7.43-1.9-7.45-1.79q-3.73-.85-7.48-1.62t-7.51-1.45l1.57-2.23q3.7,6.38,7.77,12.56c1.35,2.06,2.77,4.08,4.15,6.13l4.24,6.07.83,1.19-.79,1.8-2.85,6.52q-1.45,3.25-3,6.46t-3.12,6.38c-1.08,2.1-2.17,4.2-3.31,6.27l-4.58-6.6c5-.68,10-1.27,15-1.83,2.5-.25,5-.53,7.5-.76s5-.46,7.52-.65l1.93-.15,1,1.1c1.53,1.66,3,3.37,4.47,5.13s2.94,3.61,4.46,5.53,3.11,3.93,4.81,6S245,523.81,246.88,526Z" transform="translate(-187.27 -135.18)" fill="#231f20"/>
		<path d="M372.09,758.32c-3.5-.5-7.13-1-10.86-1.45l-11.52-1.38c-4-.5-8-1-12.05-1.58s-8.17-1.26-12.25-1.93l3-.82q-4.17,4.07-8.41,8.06c-2.81,2.68-5.66,5.31-8.49,8q-8.53,7.92-17.17,15.72l-6.68,6-.8-9q-.5-5.61-.89-11.23t-.67-11.25l-.48-11.27-.36-11.28,1.61,2.45-9.86-6c-3.31-2-6.59-3.94-9.91-5.86s-6.65-3.82-10-5.69-6.73-3.69-10.11-5.5l-2.74-1.47,2.86-1.24L257.11,707l10.71-4.81,10.64-5,10.6-5.06-1.64,2,1.88-11.2c.64-3.73,1.23-7.47,1.91-11.2s1.3-7.46,2-11.17l2.13-11.15,1.63-8.55,6.12,6.47,15.6,16.5,15.53,16.56-4.59-1.7q11.63-1.55,23.28-2.92l11.66-1.31,11.67-1.23,10.58-1.11-5.74,8.68-6.35,9.6c-2.13,3.19-4.21,6.42-6.37,9.59l-6.45,9.54c-2.14,3.19-4.33,6.34-6.51,9.5l.19-3.25c1.53,3.71,3.09,7.41,4.51,11.12s2.84,7.37,4.17,11l3.91,10.52C369.5,751.8,370.78,755.11,372.09,758.32Zm-.79-.62c-1.89-3.58-3.8-7.08-5.7-10.46s-3.79-6.67-5.67-9.87l-5.41-9.42c-1.78-3.09-3.41-6.18-5.07-9.27l-.8-1.48,1-1.76c1.88-3.35,3.74-6.71,5.66-10l5.72-10c1.89-3.34,3.87-6.63,5.8-9.94l5.82-9.93,4.84,7.57-11.62,1.67-11.63,1.59q-11.63,1.54-23.29,2.87l-2.8.33-1.78-2-15-17-14.94-17.1,7.75-2.08-2.68,11c-.89,3.68-1.86,7.34-2.79,11s-1.94,7.32-2.9,11l-2.93,11-.41,1.52-1.23.46-11,4.08-11,4.19-10.9,4.34-10.84,4.49.12-2.71c3.39,1.79,6.79,3.58,10.21,5.31s6.85,3.45,10.31,5.13,6.93,3.3,10.4,5L289,732l1.36.63.25,1.81,1.56,11.17,1.44,11.18q.67,5.6,1.24,11.2t1,11.22l-7.48-3q8.72-7.71,17.56-15.28c3-2.51,5.9-5,8.88-7.53s6-5,9-7.44l1.49-1.21,1.55.4c3.51.9,7,1.79,10.54,2.79l10.74,3.14c3.67,1.13,7.4,2.23,11.27,3.35S367.2,756.63,371.3,757.7Z" transform="translate(-187.27 -135.18)" fill="#231f20"/>
		<path d="M623,883.8c-1.77,1.29-3.64,2.7-5.58,4.2s-4,3-6.15,4.45l.48-.79c-.13,2.4-.33,4.79-.49,7.19s-.4,4.78-.63,7.17l-.25,2.68-2-1.81-2.51-2.29-2.46-2.34q-2.43-2.37-4.82-4.78l.87.2c-2.29.54-4.58,1.08-6.86,1.67s-4.54,1.22-6.8,1.87l-.93.27.39-.88q1.47-3.34,2.86-6.72t2.69-6.8l0,.77-3.74-5.78c-1.24-1.93-2.44-3.88-3.65-5.83l-1.33-2.15,2.58.11,13.75.6-1.33.58,2.3-2.83c.77-.94,1.53-1.9,2.31-2.83l4.7-5.59,2.12-2.51.5,3.18,1.09,7c.34,2.33.7,4.65,1,7l-.63-.76c2.22,1,4.4,2,6.48,3S621.06,882.95,623,883.8Zm-.3,0c-2.32-.77-4.53-1.45-6.7-2.06s-4.17-1.22-6.18-1.89l-.49-.16-.14-.6c-.54-2.29-1-4.59-1.56-6.89l-1.48-6.9,2.61.67-4.53,5.73c-.75,1-1.54,1.89-2.31,2.83l-2.32,2.82L599,878l-.8-.06-13.72-1.07,1.25-2c1.11,2,2.23,4,3.31,6L592.3,887l.22.42-.18.35q-1.64,3.27-3.23,6.56T586.06,901l-.54-.62c2.25-.68,4.5-1.37,6.73-2.11s4.45-1.53,6.67-2.31l.43-.15.44.35q2.65,2.13,5.25,4.31l2.58,2.21,2.53,2.26-2.24.87c.24-2.39.52-4.77.78-7.16s.57-4.77.92-7.14l.08-.55.4-.24c1.93-1.14,3.91-2.19,6-3.29S620.39,885.13,622.66,883.83Z" transform="translate(-187.27 -135.18)" fill="#231f20"/>
		<path d="M752.65,583.67c-.65,1.95-1.31,4.17-2,6.56s-1.58,4.95-2.57,7.43l0-1.55q3.7,6.19,7,12.58l2.06,3.94-4.42-.69q-3.35-.52-6.67-1.26t-6.61-1.61l1.4-.51c-1.7,1.64-3.38,3.29-5,5s-3.23,3.43-4.76,5.21L730,620l-.26-1.6q-.29-1.8-.62-3.6l-.7-3.59c-.51-2.39-1.05-4.76-1.62-7.14l.76,1c-2.12-.88-4.26-1.73-6.37-2.64-1.05-.46-2.12-.89-3.16-1.38l-3.13-1.42-3.8-1.73,3.71-2.26q5.88-3.58,11.79-7.1l-1.34,2c.45-4.85,1.07-9.68,1.78-14.5l.81-5.45,3.45,4c1.53,1.78,3.09,3.55,4.61,5.35s3,3.6,4.51,5.45l-1.57-.49c2.49-.36,5-.59,7.35-.76S750.68,583.89,752.65,583.67Zm-.39.31c-2.46.71-4.73,1.49-6.81,2.26s-4,1.45-5.93,2l-.77.22-.8-.72c-1.76-1.57-3.47-3.2-5.19-4.81s-3.39-3.27-5.08-4.9l4.26-1.43c-.35,4.86-.81,9.71-1.43,14.54l-.18,1.4-1.16.62q-6.07,3.24-12.18,6.41l-.09-4,3,1.67c1,.55,2,1.15,3,1.72,2,1.16,3.94,2.37,5.91,3.55l.71.43,0,.62c.19,2.43.4,4.87.66,7.29l.44,3.63c.16,1.21.34,2.41.53,3.61l-1.31-.37q2.3-2.67,4.44-5.48c1.42-1.88,2.8-3.79,4.17-5.72l.41-.58,1,.07q3.4.23,6.78.55t6.73.9l-2.36,3.25q-3.27-6.42-6.17-13l-.39-.89.35-.66c1-1.88,2.18-3.7,3.43-5.67S750.91,586.4,752.26,584Z" transform="translate(-187.27 -135.18)" fill="#231f20"/>
	</symbol>



	<!--Sunny icon-->
	<symbol id="sun" viewBox="0 0 207.43 203.43">
		<title>Sunny</title>
		<path d="M125,81.23A43.77,43.77,0,1,1,81.23,125,43.82,43.82,0,0,1,125,81.23m0-3A46.77,46.77,0,1,0,171.77,125,46.77,46.77,0,0,0,125,78.23Z" transform="translate(-21.28 -22.28)"/>
		<path d="M183.81,123.79l1.06.21c7.31,1.48,14.51,2.85,21.57,4.39s14.11,3.33,21.34,5.21l-1.47,1.16.38-21.52,1,.79-22.19,4.84C198.33,120.42,191.07,122.07,183.81,123.79Zm-2,.47,1.06-.26c7.31-1.79,14.6-3.66,22-5.63l22.45-5.92,1-.26,0,1,.38,21.52,0,1.49-1.5-.33c-7.65-1.7-15.48-3.5-23.29-5.55C196.44,128.41,189.07,126.29,181.8,124.26Z" transform="translate(-21.28 -22.28)"/>
		<path d="M68.2,124.26c-7.26,2-14.63,4.15-22.12,6.11-7.81,2-15.64,3.85-23.29,5.55l-1.5.33,0-1.49.38-21.52,0-1,1,.26,22.45,5.92c7.4,2,14.69,3.84,22,5.63Zm-2-.47c-7.26-1.72-14.52-3.36-21.69-4.92L22.31,114l1-.79.38,21.52-1.47-1.16c7.23-1.88,14.28-3.67,21.34-5.21s14.26-2.92,21.57-4.39Z" transform="translate(-21.28 -22.28)"/>
		<path d="M125.79,67.19l.21-1.06c1.48-7.31,2.85-14.51,4.39-21.57s3.33-14.11,5.21-21.34l1.16,1.47-21.52-.38.79-1,4.84,22.19C122.42,52.67,124.07,59.93,125.79,67.19Zm.47,2L126,68.14c-1.79-7.31-3.66-14.6-5.63-22l-5.92-22.45-.26-1,1,0,21.52-.38,1.49,0-.33,1.5c-1.7,7.65-3.5,15.48-5.55,23.29C130.41,54.56,128.29,61.93,126.26,69.2Z" transform="translate(-21.28 -22.28)" />
		<path d="M125.76,178.8c2,7.26,4.15,14.63,6.11,22.12,2,7.81,3.85,15.64,5.55,23.29l.33,1.5-1.49,0-21.52-.38-1,0,.26-1,5.92-22.45c2-7.4,3.84-14.69,5.63-22Zm-.47,2c-1.72,7.26-3.36,14.52-4.92,21.69l-4.84,22.19-.79-1,21.52-.38-1.16,1.47c-1.88-7.23-3.67-14.28-5.21-21.34s-2.92-14.26-4.39-21.57Z" transform="translate(-21.28 -22.28)" />
		<path d="M51,73.65c3.42-3.66,6.89-7.36,10.45-11,3.83-3.92,7.73-7.75,11.59-11.46l1.61-1.55.7,2.07L87.07,86.18l.48,1.42-1.38-.53c-11.54-4.4-22.83-8.85-34-13Zm2.22.79C64.56,78.38,75.72,82,86.65,85.75l-.9.9-13-34,2.31.52c-3.44,3.58-6.84,7.06-10.3,10.43s-7,6.68-10.63,10Z" transform="translate(-21.28 -22.28)" />
		<path d="M175.56,196.73l.8-.87c3.35-3.62,6.66-7.17,10-10.63s6.85-6.86,10.43-10.3l.52,2.31-34-13,.9-.9C168,174.28,171.62,185.44,175.56,196.73Zm.79,2.22-.42-1.14c-4.15-11.16-8.6-22.45-13-34l-.53-1.38,1.42.48,34.47,11.68,2.07.7-1.55,1.61c-3.71,3.86-7.54,7.76-11.46,11.59C183.71,192.06,180,195.53,176.35,199Z" transform="translate(-21.28 -22.28)" />
		<path d="M73.65,199c-3.66-3.42-7.36-6.89-11-10.45-3.92-3.83-7.75-7.73-11.46-11.59l-1.55-1.61,2.07-.7,34.47-11.68,1.42-.48-.53,1.38c-4.4,11.54-8.85,22.83-13,34Zm.79-2.22c3.94-11.29,7.61-22.45,11.31-33.38l.9.9-34,13,.52-2.31c3.58,3.44,7.06,6.84,10.43,10.3s6.68,7,10,10.63Z" transform="translate(-21.28 -22.28)" />
		<path d="M196.73,74.44l-.87-.8c-3.62-3.35-7.17-6.66-10.63-10s-6.86-6.85-10.3-10.43l2.31-.52-13,34-.9-.9C174.28,82,185.44,78.38,196.73,74.44Zm2.22-.79-1.14.42c-11.16,4.15-22.45,8.6-34,13l-1.38.53.48-1.42,11.68-34.47.7-2.07,1.61,1.55c3.86,3.71,7.76,7.54,11.59,11.46C192.06,66.29,195.53,70,199,73.65Z" transform="translate(-21.28 -22.28)" />
	</symbol>

	<!--Partly Cloudy icon-->
	<symbol id="partly-cloudy" viewBox="0 0 228.88 202.64">
		<defs>
			<clipPath id="clip-path" transform="translate(-11.64 -15.57)">
				<rect x="2" y="52" width="250" height="250" fill="none"/>
			</clipPath>
		</defs>
		<title>Partly Cloudy</title>
		<g>
			<path d="M108.86,91.67A62,62,0,0,1,123,89a64.25,64.25,0,0,1,43.38,13.31A62.5,62.5,0,0,0,128.5,88.5,59.37,59.37,0,0,0,108.86,91.67Z" transform="translate(-11.64 -15.57)" stroke-miterlimit="10" stroke-width="2"/>
			<path d="M62.5,158.5c-.2-31.84,20.29-58,46.36-66.83C81.33,100.22,61.08,127.32,62.5,158.5Z" transform="translate(-11.64 -15.57)" stroke-miterlimit="10" stroke-width="2"/>
		    <path d="M166.38,102.31A70.93,70.93,0,0,1,191.5,142.5,67.21,67.21,0,0,0,166.38,102.31Z" transform="translate(-11.64 -15.57)" stroke-miterlimit="10" stroke-width="2"/>
		</g>
		<path d="M120.3,73.65l.23-1c2.09-9.49,4.1-18.86,6.26-28.12s4.55-18.5,7-27.92l1.23,1.51-33.25.85.71-1,8.9,28.15C114.29,55.2,117.26,64.43,120.3,73.65Zm.65,2-.35-1c-3.13-9.28-6.34-18.55-9.64-27.9L101,18.41l-.34-1,1.05-.05L135,15.65l1.61-.08-.38,1.6C133.87,27,131.46,37,128.82,47,126.28,56.64,123.58,66.19,121,75.63Z" transform="translate(-11.64 -15.57)"/>
		<path d="M193.6,122.8l1.07-.13c7.4-.91,14.66-1.89,21.85-2.66s14.44-1.31,21.9-1.81l-1,1.56-6.45-20.53,1.2.43-19.52,11.62C206.31,115,199.94,118.87,193.6,122.8Zm-1.75,1.08.92-.58c6.36-4,12.69-8.1,19.09-12.3l19.42-12.72.85-.56.35,1L239.65,119l.5,1.4-1.52.16c-7.79.81-15.79,1.58-23.85,2.11C207,123.18,199.38,123.51,191.85,123.88Z" transform="translate(-11.64 -15.57)"/>
		<path d="M57.62,137.1c-6,3.14-12,6.38-18.25,9.5-6.5,3.27-13.07,6.31-19.49,9.22l-1.46.66-.25-1.53L14.72,133.7l-.17-1,1,.11L36.28,135c6.83.74,13.54,1.42,20.25,2Zm-2.06-.16c-6.64-.52-13.28-1-19.81-1.36l-20.32-1.22.85-.93,4.28,21.09-1.71-.87c6-3,11.79-5.87,17.67-8.5s11.91-5.15,18-7.77Z" transform="translate(-11.64 -15.57)"/>
		<path d="M154.65,79.67l.72-.8c5.34-6,10.55-11.93,15.84-17.7S182,49.75,187.6,44L188,46l-26.16-13.4,1.1-.57-4.24,24.1C157.27,63.86,155.93,71.75,154.65,79.67Zm-.33,2.07.16-1.08c1.22-8,2.37-16.06,3.48-24.22l3.41-24.69.14-1,1,.45L189,43.75l1.49.71-1.14,1.24c-5.7,6.19-11.57,12.48-17.62,18.65C166,70.27,160.09,76,154.31,81.73Z" transform="translate(-11.64 -15.57)"/>
		<path d="M182.88,94.75l1.05-.33c4.68-1.49,9.24-3,13.79-4.3s9.18-2.47,14-3.61L211,88.45,199,70.58h1.22l-8.89,12.29C188.5,86.74,185.68,90.73,182.88,94.75Zm-1.2,1.75.62-.93c2.78-4.16,5.52-8.38,8.28-12.71L199,69.74l.57-.89.65.87L213.05,87l1.07,1.43-1.77.51c-5.1,1.48-10.38,2.95-15.74,4.24C191.59,94.39,186.58,95.45,181.68,96.5Z" transform="translate(-11.64 -15.57)" />
		<path d="M90.61,81.1l-.4-1c-2.77-6.93-5.57-13.7-8.15-20.45s-5-13.63-7.34-20.71l1.77.59L58.29,51l.11-1.27L74.61,65.65C79.84,70.79,85.2,76,90.61,81.1Zm1.49,1.42-.8-.74c-5.5-5.13-11.07-10.2-16.77-15.32L57.29,50.92l-.75-.68.87-.59L75.19,37.54l1.23-.84L77,38.14c2.77,7.33,5.55,14.86,8.12,22.52C87.56,68,89.82,75.33,92.11,82.51Z" transform="translate(-11.64 -15.57)" />
		<path d="M65.69,104.77l-.82-.69c-6.52-5.47-13-10.78-19.26-16.18S33.21,76.89,27,71.1l1.8-.29L17.7,89.27l-.46-1.2,24.4,8.51C49.56,99.36,57.61,102.1,65.69,104.77Zm1.94.64-1-.34c-8.15-2.64-16.33-5.2-24.66-7.72L16.73,89.65l-1-.3.5-.91L26.73,69.64l.69-1.25,1.1,1c6.7,5.82,13.53,11.82,20.21,18.05C55.19,93.4,61.43,99.48,67.64,105.42Z" transform="translate(-11.64 -15.57)" />
		<g clip-path="url(#clip-path)">
			<line x1="1.84" y1="177.86" x2="23.23" y2="199.26"/>
			<polygon points="3.25 176.44 23.23 199.26 0.42 179.27 3.25 176.44"/>
			<line x1="22.88" y1="198.93" x2="45.88" y2="188.93"/>
			<polygon points="22.08 197.1 45.88 188.93 23.67 200.77 22.08 197.1"/>
			<line x1="26.88" y1="139.93" x2="45.88" y2="151.93"/>
			<polygon points="27.95 138.24 45.88 151.93 25.81 141.62 27.95 138.24"/>
		    <line x1="68.88" y1="128.93" x2="39.88" y2="147.93"/>
			<polygon points="69.97 130.6 39.88 147.93 67.78 127.26 69.97 130.6"/>
			<line x1="45.88" y1="188.93" x2="69.88" y2="199.93"/>
			<polygon points="46.71 187.11 69.88 199.93 45.04 190.75 46.71 187.11"/>
			<line x1="68.88" y1="128.93" x2="79.88" y2="134.93"/>
			<polygon points="69.83 127.18 79.88 134.93 67.92 130.69 69.83 127.18"/>
			<line x1="73.88" y1="140.93" x2="92.88" y2="120.93"/>
			<polygon points="72.43 139.56 92.88 120.93 75.33 142.31 72.43 139.56"/>
			<line x1="92.88" y1="120.93" x2="125.88" y2="133.93"/>
			<polygon points="93.61 119.07 125.88 133.93 92.14 122.79 93.61 119.07"/>
			<line x1="117.88" y1="129.93" x2="133.88" y2="119.93"/>
			<polygon points="116.82 128.24 133.88 119.93 118.94 131.63 116.82 128.24"/>
			<line x1="133.88" y1="119.93" x2="162.88" y2="141.93"/>
			<polygon points="135.09 118.34 162.88 141.93 132.67 121.53 135.09 118.34"/>
			<line x1="128.88" y1="191.93" x2="165.88" y2="200.93"/>
			<polygon points="129.35 189.99 165.88 200.93 128.41 193.88 129.35 189.99"/>
			<line x1="188.88" y1="171.93" x2="165.88" y2="200.93"/>
			<polygon points="190.44 173.18 165.88 200.93 187.31 170.69 190.44 173.18"/>
			<line x1="154.88" y1="135.93" x2="193.88" y2="120.93"/>
			<polygon points="154.16 134.07 193.88 120.93 155.59 137.8 154.16 134.07"/>
			<line x1="180.88" y1="181.93" x2="206.88" y2="190.93"/>
			<polygon points="181.53 180.04 206.88 190.93 180.22 183.82 181.53 180.04"/>
			<line x1="193.88" y1="120.93" x2="224.88" y2="145.93"/>
			<polygon points="195.13 119.38 224.88 145.93 192.62 122.49 195.13 119.38"/>
			<line x1="206.58" y1="191.66" x2="216.88" y2="170.93"/>
			<polygon points="204.79 190.78 216.88 170.93 208.38 192.55 204.79 190.78"/>
			<line x1="224.88" y1="145.93" x2="228.88" y2="162.93"/>
			<polygon points="226.82 145.47 228.88 162.93 222.93 146.39 226.82 145.47"/>
			<line x1="212.88" y1="178.93" x2="228.88" y2="162.93"/>
			<polygon points="211.46 177.52 228.88 162.93 214.29 180.35 211.46 177.52"/>
			<line x1="1.88" y1="177.93" x2="8.88" y2="158.93"/>
			<polygon points="0 177.24 8.88 158.93 3.75 178.62 0 177.24"/>
			<line x1="26.88" y1="139.93" x2="8.88" y2="158.93"/>
			<polygon points="28.33 141.31 8.88 158.93 25.43 138.56 28.33 141.31"/>
			<line x1="68.86" y1="199.93" x2="86.86" y2="188.93"/>
			<polygon points="67.81 198.22 86.86 188.93 69.9 201.64 67.81 198.22"/>
			<line x1="108.86" y1="200.93" x2="85.86" y2="186.93"/>
			<polygon points="107.82 202.64 85.86 186.93 109.9 199.22 107.82 202.64"/>
			<line x1="138.86" y1="184.93" x2="108.86" y2="201.93"/>
			<polygon points="139.84 186.67 108.86 201.93 137.87 183.19 139.84 186.67"/>
		</g>
	</symbol>

	<!--Cloudy icon-->
	<symbol id="cloud" viewBox="0 0 228.88 84.3">
		<title>Cloudy</title>
		<g>
			<g>
			      <line x1="1.84" y1="59.52" x2="23.23" y2="80.92"/>
			      <polygon points="3.25 58.1 23.23 80.92 0.42 60.93 3.25 58.1"/>
			</g>
			<g>
			      <line x1="22.88" y1="80.59" x2="45.88" y2="70.59"/>
			      <polygon points="22.08 78.76 45.88 70.59 23.67 82.43 22.08 78.76"/>
			</g>
			<g>
			      <line x1="26.88" y1="21.59" x2="45.88" y2="33.59"/>
			      <polygon points="27.95 19.9 45.88 33.59 25.81 23.28 27.95 19.9"/>
			</g>
			<g>
			      <line x1="68.88" y1="10.59" x2="39.88" y2="29.59"/>
			      <polygon points="69.97 12.27 39.88 29.59 67.78 8.92 69.97 12.27"/>
			</g>
			<g>
			      <line x1="45.88" y1="70.59" x2="69.88" y2="81.59"/>
			      <polygon points="46.71 68.78 69.88 81.59 45.04 72.41 46.71 68.78"/>
			</g>
			<g>
			      <line x1="68.88" y1="10.59" x2="79.88" y2="16.59"/>
			      <polygon points="69.83 8.84 79.88 16.59 67.92 12.35 69.83 8.84"/>
		    </g>
		    <g>
			      <line x1="73.88" y1="22.59" x2="92.88" y2="2.59"/>
			      <polygon points="72.43 21.22 92.88 2.59 75.33 23.97 72.43 21.22"/>
		    </g>
		    <g>
			      <line x1="92.88" y1="2.59" x2="125.88" y2="15.59"/>
			      <polygon points="93.61 0.73 125.88 15.59 92.14 4.45 93.61 0.73"/>
		    </g>
		    <g>
			      <line x1="117.88" y1="11.59" x2="133.88" y2="1.59"/>
			      <polygon points="116.82 9.9 133.88 1.59 118.94 13.29 116.82 9.9"/>
		    </g>
		    <g>
			      <line x1="133.88" y1="1.59" x2="162.88" y2="23.59"/>
			      <polygon points="135.09 0 162.88 23.59 132.67 3.19 135.09 0"/>
		    </g>
		    <g>
			      <line x1="128.88" y1="73.59" x2="165.88" y2="82.59"/>
			      <polygon points="129.35 71.65 165.88 82.59 128.4 75.54 129.35 71.65"/>
		    </g>
		    <g>
			      <line x1="188.88" y1="53.59" x2="165.88" y2="82.59"/>
			      <polygon points="190.44 54.84 165.88 82.59 187.31 52.35 190.44 54.84"/>
		    </g>
		    <g>
			      <line x1="154.88" y1="17.59" x2="193.88" y2="2.59"/>
			      <polygon points="154.16 15.73 193.88 2.59 155.59 19.46 154.16 15.73"/>
		    </g>
		    <g>
			      <line x1="180.88" y1="63.59" x2="206.88" y2="72.59"/>
			      <polygon points="181.53 61.7 206.88 72.59 180.22 65.48 181.53 61.7"/>
		    </g>
		    <g>
			      <line x1="193.88" y1="2.59" x2="224.88" y2="27.59"/>
			      <polygon points="195.13 1.04 224.88 27.59 192.62 4.15 195.13 1.04"/>
		    </g>
		    <g>
			      <line x1="206.58" y1="73.33" x2="216.88" y2="52.59"/>
			      <polygon points="204.79 72.44 216.88 52.59 208.38 74.22 204.79 72.44"/>
		    </g>
		    <g>
			      <line x1="224.88" y1="27.59" x2="228.88" y2="44.59"/>
			      <polygon points="226.82 27.14 228.88 44.59 222.93 28.05 226.82 27.14"/>
		    </g>
		    <g>
			      <line x1="212.88" y1="60.59" x2="228.88" y2="44.59"/>
			      <polygon points="211.46 59.18 228.88 44.59 214.29 62.01 211.46 59.18"/>
			</g>
		    <g>
			      <line x1="1.88" y1="59.59" x2="8.88" y2="40.59"/>
			      <polygon points="0 58.9 8.88 40.59 3.75 60.28 0 58.9"/>
			</g>
			<g>
			      <line x1="26.88" y1="21.59" x2="8.88" y2="40.59"/>
			      <polygon points="28.33 22.97 8.88 40.59 25.43 20.22 28.33 22.97"/>
			</g>
			<g>
			      <line x1="68.86" y1="81.59" x2="86.86" y2="70.59"/>
			      <polygon points="67.81 79.89 86.86 70.59 69.9 83.3 67.81 79.89"/>
			</g>
			<g>
			      <line x1="108.86" y1="82.59" x2="85.86" y2="68.59"/>
			      <polygon points="107.82 84.3 85.86 68.59 109.9 80.89 107.82 84.3"/>
			</g>
			<g>
			      <line x1="138.86" y1="66.59" x2="108.86" y2="83.59"/>
			      <polygon points="139.84 68.33 108.86 83.59 137.87 64.85 139.84 68.33"/>
			</g>
		</g>
	</symbol>

	<!--Rain icon-->
	<symbol id="rain" viewBox="0 0 228.88 216.74">
		<defs>
			<clipPath id="clip-path" transform="translate(-9.64 -11.91)">
			    <rect y="-70" width="250" height="250" fill="none"/>
			</clipPath>
		</defs>
		<title>Rainy</title>
		<g>
			<g>
				<path d="M38.65,100.5c.24,1.83.4,3.67.6,5.5s.33,3.67.45,5.5A29.08,29.08,0,0,1,40,117a20.41,20.41,0,0,1-.44,2.75,13.33,13.33,0,0,1-.91,2.75l-.07.15h-.16l-.07-.15a13.33,13.33,0,0,1-.91-2.75A20.41,20.41,0,0,1,37,117a29.08,29.08,0,0,1,.3-5.5q.19-2.75.45-5.5c.2-1.83.36-3.67.6-5.5l0-.15h.26Z"/>
			    <path d="M56.65,83.5c.24,3.67.4,7.33.6,11l.45,11c.13,3.67.52,7.33.3,11a66,66,0,0,1-1.35,11l0,.15h-.23l0-.15a66,66,0,0,1-1.35-11c-.22-3.67.17-7.33.3-11l.45-11c.2-3.67.36-7.33.6-11v-.15h.28Z"/>
			    <path d="M38.65,144.5c.24.92.4,1.83.6,2.75s.33,1.83.45,2.75a7.39,7.39,0,0,1,.3,2.75,5.71,5.71,0,0,1-.44,1.38,4.91,4.91,0,0,1-.91,1.38l-.14.15h0l-.14-.15a4.91,4.91,0,0,1-.91-1.37,5.71,5.71,0,0,1-.44-1.37,7.39,7.39,0,0,1,.3-2.75q.19-1.38.45-2.75c.2-.92.36-1.83.6-2.75l0-.15h.22Z"/>
			    <path d="M38.65,173.5c.24,2.92.4,5.83.6,8.75L39.7,191a73.06,73.06,0,0,1,.3,8.75,42.37,42.37,0,0,1-1.35,8.75l0,.15h-.21l0-.15A42.37,42.37,0,0,1,37,199.75a73.06,73.06,0,0,1,.3-8.75l.45-8.75c.2-2.92.36-5.83.6-8.75v-.15h.28Z"/>
			    <path d="M56.65,154.5c.24,2.83.4,5.67.6,8.5s.33,5.67.45,8.5A69,69,0,0,1,58,180a40.07,40.07,0,0,1-1.35,8.5l0,.15h-.21l0-.15A40.07,40.07,0,0,1,55,180a69,69,0,0,1,.3-8.5q.19-4.25.45-8.5c.2-2.83.36-5.67.6-8.5v-.15h.27Z"/>
			    <path d="M79.65,108.5,80,130l.2,21.51c0,7.17.35,14.34,0,21.5s-.69,14.33-1.6,21.48l0,.15h-.27l0-.15c-.74-7.18-1-14.35-1.1-21.52s.34-14.33.55-21.5L78.5,130l.85-21.49v-.15h.29Z"/>
			    <path d="M93.65,131.5c.24,2.92.4,5.83.6,8.75L94.7,149a73.05,73.05,0,0,1,.3,8.75,42.37,42.37,0,0,1-1.35,8.75l0,.15h-.21l0-.15A42.37,42.37,0,0,1,92,157.75a73.05,73.05,0,0,1,.3-8.75l.45-8.75c.2-2.92.36-5.83.6-8.75v-.15h.28Z"/>
			    <path d="M93.65,190.5c.24,1.83.4,3.67.6,5.5s.33,3.67.45,5.5A29.08,29.08,0,0,1,95,207a20.41,20.41,0,0,1-.44,2.75,13.32,13.32,0,0,1-.91,2.75l-.07.15h-.16l-.07-.15a13.32,13.32,0,0,1-.91-2.75A20.41,20.41,0,0,1,92,207a29.08,29.08,0,0,1,.3-5.5q.19-2.75.45-5.5c.2-1.83.36-3.67.6-5.5l0-.15h.26Z"/>
			    <path d="M127.65,109.5c.24,2.25.4,4.5.6,6.75s.33,4.5.45,6.75a43.55,43.55,0,0,1,.3,6.75,25.85,25.85,0,0,1-1.35,6.75l-.06.15h-.19l-.06-.15a25.85,25.85,0,0,1-1.35-6.75,43.55,43.55,0,0,1,.3-6.75q.19-3.37.45-6.75c.2-2.25.36-4.5.6-6.75l0-.15h.27Z"/>
			    <path d="M201.65,110.5c.24,1.83.4,3.67.6,5.5s.33,3.67.45,5.5a29.08,29.08,0,0,1,.3,5.5,20.41,20.41,0,0,1-.44,2.75,13.33,13.33,0,0,1-.91,2.75l-.07.15h-.16l-.07-.15a13.33,13.33,0,0,1-.91-2.75A20.41,20.41,0,0,1,200,127a29.08,29.08,0,0,1,.3-5.5q.19-2.75.45-5.5c.2-1.83.36-3.67.6-5.5l0-.15h.26Z"/>
			    <path d="M183.65,121.5c.24,3.67.4,7.33.6,11l.45,11c.13,3.67.52,7.33.3,11a66,66,0,0,1-1.35,11l0,.15h-.23l0-.15a66,66,0,0,1-1.35-11c-.22-3.67.17-7.33.3-11l.45-11c.2-3.67.36-7.33.6-11v-.15h.28Z"/>
			    <path d="M201.65,154.5c.24.92.4,1.83.6,2.75s.33,1.83.45,2.75a7.39,7.39,0,0,1,.3,2.75,5.71,5.71,0,0,1-.44,1.38,4.91,4.91,0,0,1-.91,1.38l-.14.15h0l-.14-.15a4.91,4.91,0,0,1-.91-1.37,5.71,5.71,0,0,1-.44-1.37,7.39,7.39,0,0,1,.3-2.75q.19-1.38.45-2.75c.2-.92.36-1.83.6-2.75l0-.15h.22Z"/>
			    <path d="M201.65,183.5c.24,2.92.4,5.83.6,8.75l.45,8.75a73.06,73.06,0,0,1,.3,8.75,42.36,42.36,0,0,1-1.35,8.75l0,.15h-.21l0-.15a42.36,42.36,0,0,1-1.35-8.75,73.06,73.06,0,0,1,.3-8.75l.45-8.75c.2-2.92.36-5.83.6-8.75v-.15h.28Z"/>
			    <path d="M183.65,183.5c.24,1.25.4,2.5.6,3.75s.33,2.5.45,3.75a13.62,13.62,0,0,1,.3,3.75,9.92,9.92,0,0,1-.44,1.88,7.28,7.28,0,0,1-.91,1.88l-.1.15h-.09l-.1-.15a7.28,7.28,0,0,1-.91-1.87,9.92,9.92,0,0,1-.44-1.87,13.62,13.62,0,0,1,.3-3.75q.19-1.87.45-3.75c.2-1.25.36-2.5.6-3.75l0-.15h.24Z"/>
			    <path d="M160.65,118.5,161.5,140l.7,21.49c.21,7.17.69,14.33.55,21.5s-.36,14.34-1.1,21.52l0,.15h-.27l0-.15c-.91-7.16-1.32-14.32-1.6-21.48s0-14.34,0-21.5L160,140l.35-21.51v-.15h.29Z"/>
			    <path d="M146.65,141.5c.24,2.92.4,5.83.6,8.75l.45,8.75a73.06,73.06,0,0,1,.3,8.75,42.36,42.36,0,0,1-1.35,8.75l0,.15h-.21l0-.15a42.36,42.36,0,0,1-1.35-8.75,73.06,73.06,0,0,1,.3-8.75l.45-8.75c.2-2.92.36-5.83.6-8.75v-.15h.28Z"/>
			    <path d="M146.65,200.5c.24,1.83.4,3.67.6,5.5s.33,3.67.45,5.5a29.08,29.08,0,0,1,.3,5.5,20.41,20.41,0,0,1-.44,2.75,13.33,13.33,0,0,1-.91,2.75l-.07.15h-.16l-.07-.15a13.33,13.33,0,0,1-.91-2.75A20.41,20.41,0,0,1,145,217a29.08,29.08,0,0,1,.3-5.5q.19-2.75.45-5.5c.2-1.83.36-3.67.6-5.5l0-.15h.26Z"/>
			    <path d="M112.65,119.5c.24,2.25.4,4.5.6,6.75s.33,4.5.45,6.75a43.55,43.55,0,0,1,.3,6.75,25.85,25.85,0,0,1-1.35,6.75l-.06.15h-.19l-.06-.15a25.85,25.85,0,0,1-1.35-6.75,43.55,43.55,0,0,1,.3-6.75q.19-3.37.45-6.75c.2-2.25.36-4.5.6-6.75l0-.15h.27Z"/>
			    <path d="M119.65,158.5c.24,2.08.4,4.17.6,6.25s.33,4.17.45,6.25a37.37,37.37,0,0,1,.3,6.25,22.39,22.39,0,0,1-1.35,6.25l-.06.15h-.18l-.06-.15a22.39,22.39,0,0,1-1.35-6.25,37.37,37.37,0,0,1,.3-6.25q.19-3.12.45-6.25c.2-2.08.36-4.17.6-6.25l0-.15h.27Z"/>
			    <path d="M119.65,204.5c.24,2,.4,4,.6,6s.33,4,.45,6a34.57,34.57,0,0,1,.3,6,24.14,24.14,0,0,1-.44,3,15.48,15.48,0,0,1-.91,3l-.06.15h-.17l-.06-.15a15.48,15.48,0,0,1-.91-3,24.14,24.14,0,0,1-.44-3,34.57,34.57,0,0,1,.3-6q.19-3,.45-6c.2-2,.36-4,.6-6l0-.15h.26Z"/>
			    <path d="M226.65,95.5l.6,19.5.45,19.5c.13,6.5.52,13,.3,19.5s-.52,13-1.35,19.5l0,.15h-.26l0-.15c-.83-6.5-1.15-13-1.35-19.5s.17-13,.3-19.5l.45-19.5.6-19.5v-.15h.29Z"/>
			    <path d="M191.65,78.5c.24,2.08.4,4.17.6,6.25s.33,4.17.45,6.25a37.37,37.37,0,0,1,.3,6.25,22.39,22.39,0,0,1-1.35,6.25l-.06.15h-.18l-.06-.15A22.39,22.39,0,0,1,190,97.25a37.37,37.37,0,0,1,.3-6.25q.19-3.13.45-6.25c.2-2.08.36-4.17.6-6.25l0-.15h.27Z"/>
			</g>
			<g clip-path="url(#clip-path)">
			      <line x1="1.84" y1="59.52" x2="23.23" y2="80.92"/>
			      <polygon points="3.25 58.1 23.23 80.92 0.42 60.93 3.25 58.1"/>
			      <line x1="22.88" y1="80.59" x2="45.88" y2="70.59"/>
			      <polygon points="22.08 78.76 45.88 70.59 23.67 82.43 22.08 78.76"/>
			      <line x1="26.88" y1="21.59" x2="45.88" y2="33.59"/>
			      <polygon points="27.95 19.9 45.88 33.59 25.81 23.28 27.95 19.9"/>
			      <line x1="68.88" y1="10.59" x2="39.88" y2="29.59"/>
			      <polygon points="69.97 12.27 39.88 29.59 67.78 8.92 69.97 12.27"/>
			      <line x1="45.88" y1="70.59" x2="69.88" y2="81.59"/>
			      <polygon points="46.71 68.78 69.88 81.59 45.04 72.41 46.71 68.78"/>
			      <line x1="68.88" y1="10.59" x2="79.88" y2="16.59"/>
			      <polygon points="69.83 8.84 79.88 16.59 67.92 12.35 69.83 8.84"/>
			      <line x1="73.88" y1="22.59" x2="92.88" y2="2.59"/>
			      <polygon points="72.43 21.22 92.88 2.59 75.33 23.97 72.43 21.22"/>
			      <line x1="92.88" y1="2.59" x2="125.88" y2="15.59"/>
			      <polygon points="93.61 0.73 125.88 15.59 92.14 4.46 93.61 0.73"/>
			      <line x1="117.88" y1="11.59" x2="133.88" y2="1.59"/>
			      <polygon points="116.82 9.9 133.88 1.59 118.94 13.29 116.82 9.9"/>
			      <line x1="133.88" y1="1.59" x2="162.88" y2="23.59"/>
			      <polygon points="135.09 0 162.88 23.59 132.67 3.19 135.09 0"/>
			      <line x1="128.88" y1="73.59" x2="165.88" y2="82.59"/>
			      <polygon points="129.35 71.65 165.88 82.59 128.41 75.54 129.35 71.65"/>
			      <line x1="188.88" y1="53.59" x2="165.88" y2="82.59"/>
			      <polygon points="190.44 54.84 165.88 82.59 187.31 52.35 190.44 54.84"/>
			      <line x1="154.88" y1="17.59" x2="193.88" y2="2.59"/>
			      <polygon points="154.16 15.73 193.88 2.59 155.59 19.46 154.16 15.73"/>
			      <line x1="180.88" y1="63.59" x2="206.88" y2="72.59"/>
			      <polygon points="181.53 61.7 206.88 72.59 180.22 65.48 181.53 61.7"/>
			      <line x1="193.88" y1="2.59" x2="224.88" y2="27.59"/>
			      <polygon points="195.13 1.04 224.88 27.59 192.62 4.15 195.13 1.04"/>
			      <line x1="206.58" y1="73.33" x2="216.88" y2="52.59"/>
			      <polygon points="204.79 72.44 216.88 52.59 208.38 74.22 204.79 72.44"/>
			      <line x1="224.88" y1="27.59" x2="228.88" y2="44.59"/>
			      <polygon points="226.82 27.14 228.88 44.59 222.93 28.05 226.82 27.14"/>
			      <line x1="212.88" y1="60.59" x2="228.88" y2="44.59"/>
			      <polygon points="211.46 59.18 228.88 44.59 214.29 62.01 211.46 59.18"/>
			      <line x1="1.88" y1="59.59" x2="8.88" y2="40.59"/>
			      <polygon points="0 58.9 8.88 40.59 3.75 60.28 0 58.9"/>
			      <line x1="26.88" y1="21.59" x2="8.88" y2="40.59"/>
			      <polygon points="28.33 22.97 8.88 40.59 25.43 20.22 28.33 22.97"/>
			      <line x1="68.86" y1="81.59" x2="86.86" y2="70.59"/>
			      <polygon points="67.81 79.89 86.86 70.59 69.9 83.3 67.81 79.89"/>
			      <line x1="108.86" y1="82.59" x2="85.86" y2="68.59"/>
			      <polygon points="107.82 84.3 85.86 68.59 109.9 80.89 107.82 84.3"/>
			      <line x1="138.86" y1="66.59" x2="108.86" y2="83.59"/>
			      <polygon points="139.84 68.33 108.86 83.59 137.87 64.85 139.84 68.33"/>
			</g>
		</g>
	</symbol>

	<!--Storm icon-->
	<symbol id="storm-cloud" viewBox="0 0 228.88 165.66">
		<defs>
			<clipPath id="clip-path" transform="translate(-9.64 -41.91)">
			    <rect y="-40" width="250" height="250" fill="none"/>
			</clipPath>
		</defs>
		<title>Stormy</title>
		<g>
			<g>
			    <polygon points="97 72.89 74.86 104.71 92.72 70.3 97 72.89"/>
			    <polygon points="150.61 80.52 134.13 103.15 148.1 78.89 150.61 80.52"/>
			    <path d="M84.5,146.62a30.78,30.78,0,0,1,3.89.07c1.08.51,2.18,1,3.26,1.47l6.54,2.92,6.54,2.92,3.27,1.46a37.42,37.42,0,0,1,2.66,2.83,37.42,37.42,0,0,1-3.88-.09l-3.27-1.46L97,153.82l-6.54-2.92c-1.09-.48-2.17-1-3.27-1.44A30.79,30.79,0,0,1,84.5,146.62Z" transform="translate(-9.64 -41.91)"/>
			    <polygon points="76.52 163.69 101.01 116.38 79.22 165 76.52 163.69"/>
			    <path d="M143.84,145.32a18.07,18.07,0,0,1,2.17,1.06c.45.58.92,1.14,1.38,1.71l2.77,3.4,2.77,3.4,1.38,1.7a21.94,21.94,0,0,1,.61,2.33,21.94,21.94,0,0,1-2.16-1.07l-1.38-1.7-2.77-3.4-2.77-3.4c-.46-.56-.91-1.14-1.39-1.7A18.07,18.07,0,0,1,143.84,145.32Z" transform="translate(-9.64 -41.91)"/>
			    <polygon points="77.23 162.38 145.26 117.03 79.53 165.66 77.23 162.38"/>
			</g>
			<g clip-path="url(#clip-path)">
			    <line x1="1.84" y1="59.52" x2="23.23" y2="80.92"/>
			    <polygon points="3.25 58.1 23.23 80.92 0.42 60.93 3.25 58.1"/>
			    <line x1="22.88" y1="80.59" x2="45.88" y2="70.59"/>
			    <polygon points="22.08 78.76 45.88 70.59 23.67 82.43 22.08 78.76"/>
			    <line x1="26.88" y1="21.59" x2="45.88" y2="33.59"/>
		     	<polygon points="27.95 19.9 45.88 33.59 25.81 23.28 27.95 19.9"/>
			    <line x1="68.88" y1="10.59" x2="39.88" y2="29.59"/>
			    <polygon points="69.97 12.27 39.88 29.59 67.78 8.92 69.97 12.27"/>
			    <line x1="45.88" y1="70.59" x2="69.88" y2="81.59"/>
			    <polygon points="46.71 68.78 69.88 81.59 45.04 72.41 46.71 68.78"/>
			    <line x1="68.88" y1="10.59" x2="79.88" y2="16.59"/>
			    <polygon points="69.83 8.84 79.88 16.59 67.92 12.35 69.83 8.84"/>
			    <line x1="73.88" y1="22.59" x2="92.88" y2="2.59"/>
			    <polygon points="72.43 21.22 92.88 2.59 75.33 23.97 72.43 21.22"/>
			    <line x1="92.88" y1="2.59" x2="125.88" y2="15.59"/>
			    <polygon points="93.61 0.73 125.88 15.59 92.14 4.46 93.61 0.73"/>
			    <line x1="117.88" y1="11.59" x2="133.88" y2="1.59"/>
			    <polygon points="116.82 9.9 133.88 1.59 118.94 13.29 116.82 9.9"/>
			    <line x1="133.88" y1="1.59" x2="162.88" y2="23.59"/>
			    <polygon points="135.09 0 162.88 23.59 132.67 3.19 135.09 0"/>
			    <line x1="128.88" y1="73.59" x2="165.88" y2="82.59"/>
			    <polygon points="129.35 71.65 165.88 82.59 128.41 75.54 129.35 71.65"/>
			    <line x1="188.88" y1="53.59" x2="165.88" y2="82.59"/>
			    <polygon points="190.44 54.84 165.88 82.59 187.31 52.35 190.44 54.84"/>
			    <line x1="154.88" y1="17.59" x2="193.88" y2="2.59"/>
			    <polygon points="154.16 15.73 193.88 2.59 155.59 19.46 154.16 15.73"/>
			    <line x1="180.88" y1="63.59" x2="206.88" y2="72.59"/>
				<polygon points="181.53 61.7 206.88 72.59 180.22 65.48 181.53 61.7"/>
			    <line x1="193.88" y1="2.59" x2="224.88" y2="27.59"/>
			    <polygon points="195.13 1.04 224.88 27.59 192.62 4.15 195.13 1.04"/>
			    <line x1="206.58" y1="73.33" x2="216.88" y2="52.59"/>
			    <polygon points="204.79 72.44 216.88 52.59 208.38 74.22 204.79 72.44"/>
			    <line x1="224.88" y1="27.59" x2="228.88" y2="44.59"/>
			    <polygon points="226.82 27.14 228.88 44.59 222.93 28.05 226.82 27.14"/>
			    <line x1="212.88" y1="60.59" x2="228.88" y2="44.59"/>
			    <polygon points="211.46 59.18 228.88 44.59 214.29 62.01 211.46 59.18"/>
			    <line x1="1.88" y1="59.59" x2="8.88" y2="40.59"/>
			    <polygon points="0 58.9 8.88 40.59 3.75 60.28 0 58.9"/>
			    <line x1="26.88" y1="21.59" x2="8.88" y2="40.59"/>
			    <polygon points="28.33 22.97 8.88 40.59 25.43 20.22 28.33 22.97"/>
			    <line x1="68.86" y1="81.59" x2="86.86" y2="70.59"/>
			    <polygon points="67.81 79.89 86.86 70.59 69.9 83.3 67.81 79.89"/>
			    <line x1="108.86" y1="82.59" x2="85.86" y2="68.59"/>
			    <polygon points="107.82 84.3 85.86 68.59 109.9 80.89 107.82 84.3"/>
			    <line x1="138.86" y1="66.59" x2="108.86" y2="83.59"/>
			    <polygon points="139.84 68.33 108.86 83.59 137.87 64.85 139.84 68.33"/>
			</g>
		</g>
	</symbol>

	<!--Snow icon-->
	<symbol id="snow" viewBox="0 0 228.88 202.63">
		<defs>
		    <clipPath id="clip-path" transform="translate(-9.64 -11.91)">
		        <rect y="-70" width="250" height="250" fill="none"/>
			</clipPath>
		</defs>
		<title>Snowy</title>
		<g>
			<g clip-path="url(#clip-path)">
			    <line x1="1.84" y1="59.52" x2="23.23" y2="80.92"/>
			    <polygon points="3.25 58.1 23.23 80.92 0.42 60.93 3.25 58.1"/>
			    <line x1="22.88" y1="80.59" x2="45.88" y2="70.59"/>
			    <polygon points="22.08 78.76 45.88 70.59 23.67 82.43 22.08 78.76"/>
			    <line x1="26.88" y1="21.59" x2="45.88" y2="33.59"/>
			    <polygon points="27.95 19.9 45.88 33.59 25.81 23.28 27.95 19.9"/>
			    <line x1="68.88" y1="10.59" x2="39.88" y2="29.59"/>
			    <polygon points="69.97 12.27 39.88 29.59 67.78 8.92 69.97 12.27"/>
			    <line x1="45.88" y1="70.59" x2="69.88" y2="81.59"/>
			    <polygon points="46.71 68.78 69.88 81.59 45.04 72.41 46.71 68.78"/>
			    <line x1="68.88" y1="10.59" x2="79.88" y2="16.59"/>
			    <polygon points="69.83 8.84 79.88 16.59 67.92 12.35 69.83 8.84"/>
			    <line x1="73.88" y1="22.59" x2="92.88" y2="2.59"/>
			    <polygon points="72.43 21.22 92.88 2.59 75.33 23.97 72.43 21.22"/>
			    <line x1="92.88" y1="2.59" x2="125.88" y2="15.59"/>
			    <polygon points="93.61 0.73 125.88 15.59 92.14 4.46 93.61 0.73"/>
			    <line x1="117.88" y1="11.59" x2="133.88" y2="1.59"/>
			    <polygon points="116.82 9.9 133.88 1.59 118.94 13.29 116.82 9.9"/>
			    <line x1="133.88" y1="1.59" x2="162.88" y2="23.59"/>
			    <polygon points="135.09 0 162.88 23.59 132.67 3.19 135.09 0"/>
			    <line x1="128.88" y1="73.59" x2="165.88" y2="82.59"/>
			    <polygon points="129.35 71.65 165.88 82.59 128.41 75.54 129.35 71.65"/>
			    <line x1="188.88" y1="53.59" x2="165.88" y2="82.59"/>
			    <polygon points="190.44 54.84 165.88 82.59 187.31 52.35 190.44 54.84"/>
			    <line x1="154.88" y1="17.59" x2="193.88" y2="2.59"/>
			    <polygon points="154.16 15.73 193.88 2.59 155.59 19.46 154.16 15.73"/>
			    <line x1="180.88" y1="63.59" x2="206.88" y2="72.59"/>
		 	  	<polygon points="181.53 61.7 206.88 72.59 180.22 65.48 181.53 61.7"/>
			    <line x1="193.88" y1="2.59" x2="224.88" y2="27.59"/>
			    <polygon points="195.13 1.04 224.88 27.59 192.62 4.15 195.13 1.04"/>
			    <line x1="206.58" y1="73.33" x2="216.88" y2="52.59"/>
			    <polygon points="204.79 72.44 216.88 52.59 208.38 74.22 204.79 72.44"/>
			    <line x1="224.88" y1="27.59" x2="228.88" y2="44.59"/>
			    <polygon points="226.82 27.14 228.88 44.59 222.93 28.05 226.82 27.14"/>
			    <line x1="212.88" y1="60.59" x2="228.88" y2="44.59"/>
			    <polygon points="211.46 59.18 228.88 44.59 214.29 62.01 211.46 59.18"/>
			    <line x1="1.88" y1="59.59" x2="8.88" y2="40.59"/>
			    <polygon points="0 58.9 8.88 40.59 3.75 60.28 0 58.9"/>
			    <line x1="26.88" y1="21.59" x2="8.88" y2="40.59"/>
			    <polygon points="28.33 22.97 8.88 40.59 25.43 20.22 28.33 22.97"/>
			    <line x1="68.86" y1="81.59" x2="86.86" y2="70.59"/>
			    <polygon points="67.81 79.89 86.86 70.59 69.9 83.3 67.81 79.89"/>
			    <line x1="108.86" y1="82.59" x2="85.86" y2="68.59"/>
			    <polygon points="107.82 84.3 85.86 68.59 109.9 80.89 107.82 84.3"/>
			    <line x1="138.86" y1="66.59" x2="108.86" y2="83.59"/>
			    <polygon points="139.84 68.33 108.86 83.59 137.87 64.85 139.84 68.33"/>
			</g>
			<g>
			    <path d="M78.65,143a70.79,70.79,0,0,1-5.45,4.58l-.93.7-.62-.83-3.87-5.16-.47-.63.57-.42,5.74-4.3.3-.22.2.27c1.35,1.79,2.61,3.53,3.87,5.16Zm-1.34-1.58c-1.28-1.39-2.54-2.71-3.74-4l.5,0-5.23,4.91.09-1.06L73.34,146l-1.56-.14a39.16,39.16,0,0,1,4.7-3.89Z" transform="translate(-9.64 -11.91)"/>
			    <path d="M142.59,115.29a70.79,70.79,0,0,1-5.45,4.58l-.93.7-.62-.83-3.87-5.16-.47-.63.57-.42,5.74-4.3.3-.22.2.27c1.35,1.79,2.61,3.53,3.87,5.16Zm-1.34-1.58c-1.28-1.39-2.54-2.71-3.74-4l.5,0-5.23,4.91.09-1.06,4.41,4.71-1.56-.14a39.16,39.16,0,0,1,4.7-3.89Z" transform="translate(-9.64 -11.91)"/>
			    <path d="M57.36,160.48a70.79,70.79,0,0,1-5.45,4.58l-.93.7-.62-.83-3.87-5.16-.47-.63.57-.42,5.74-4.3.3-.22.2.27c1.35,1.79,2.61,3.53,3.87,5.16ZM56,158.9c-1.28-1.39-2.54-2.71-3.74-4l.5,0-5.23,4.91.09-1.06L52,163.51l-1.56-.14a39.16,39.16,0,0,1,4.7-3.89Z" transform="translate(-9.64 -11.91)"/>
			    <path d="M225.32,201.75a70.79,70.79,0,0,1-5.45,4.58l-.93.7-.62-.83L214.45,201l-.47-.63.57-.42,5.74-4.3.3-.22.2.27c1.35,1.79,2.61,3.53,3.87,5.16ZM224,200.16c-1.28-1.39-2.54-2.71-3.74-4l.5,0-5.23,4.91.09-1.06,4.41,4.71-1.56-.14a39.16,39.16,0,0,1,4.7-3.89Z" transform="translate(-9.64 -11.91)"/>
			    <path d="M214,173.77a70.79,70.79,0,0,1-5.45,4.58l-.93.7-.62-.83-3.87-5.16-.47-.63.57-.42,5.74-4.3.3-.22.2.27c1.35,1.79,2.61,3.53,3.87,5.16Zm-1.34-1.58c-1.28-1.39-2.54-2.71-3.74-4l.5,0-5.23,4.91.09-1.06,4.41,4.71-1.56-.14a39.16,39.16,0,0,1,4.7-3.89Z" transform="translate(-9.64 -11.91)"/>
			    <path d="M129.07,209.25a70.79,70.79,0,0,1-5.45,4.58l-.93.7-.63-.83-3.87-5.16-.47-.63.57-.42,5.74-4.3.3-.22.2.27c1.35,1.79,2.61,3.53,3.87,5.16Zm-1.34-1.58c-1.28-1.39-2.54-2.71-3.74-4l.5,0-5.23,4.91.09-1.06,4.41,4.71-1.56-.14a39.16,39.16,0,0,1,4.7-3.89Z" transform="translate(-9.64 -11.91)"/>
			    <path d="M75.41,204.47A70.79,70.79,0,0,1,70,209.06l-.93.7-.62-.83-3.87-5.16-.47-.63.57-.42,5.74-4.3.3-.22.2.27c1.35,1.79,2.61,3.53,3.87,5.16Zm-1.34-1.58c-1.28-1.39-2.54-2.71-3.74-4l.5,0-5.23,4.91.09-1.06,4.41,4.71-1.56-.14a39.16,39.16,0,0,1,4.7-3.89Z" transform="translate(-9.64 -11.91)"/>
			    <path d="M179.11,201.62a70.79,70.79,0,0,1-5.45,4.58l-.93.7-.62-.83-3.87-5.16-.47-.63.57-.42,5.74-4.3.3-.22.2.27c1.35,1.79,2.61,3.53,3.87,5.16ZM177.77,200c-1.28-1.39-2.54-2.71-3.74-4l.5,0L169.3,201l.09-1.06,4.41,4.71-1.56-.14a39.16,39.16,0,0,1,4.7-3.89Z" transform="translate(-9.64 -11.91)"/>
			    <path d="M221.74,123.8a70.79,70.79,0,0,1-5.45,4.58l-.93.7-.62-.83-3.87-5.16-.47-.63L211,122l5.74-4.3.3-.22.2.27c1.35,1.79,2.61,3.53,3.87,5.16Zm-1.34-1.58c-1.28-1.39-2.54-2.71-3.74-4l.5,0-5.23,4.91.09-1.06,4.41,4.71-1.56-.14a39.16,39.16,0,0,1,4.7-3.89Z" transform="translate(-9.64 -11.91)"/>
			    <path d="M217.92,98.79a70.79,70.79,0,0,1-5.45,4.58l-.93.7-.62-.83L207,98.07l-.47-.63.57-.42,5.74-4.3.3-.22.2.27c1.35,1.79,2.61,3.53,3.87,5.16Zm-1.34-1.58c-1.28-1.39-2.54-2.71-3.74-4l.5,0-5.23,4.91.09-1.06,4.41,4.71-1.56-.14a39.16,39.16,0,0,1,4.7-3.89Z" transform="translate(-9.64 -11.91)"/>
			    <path d="M169.62,138.26a70.79,70.79,0,0,1-5.45,4.58l-.93.7-.62-.83-3.87-5.16-.47-.63.57-.42,5.74-4.3.3-.22.2.27c1.35,1.79,2.61,3.53,3.87,5.16Zm-1.34-1.58c-1.28-1.39-2.54-2.71-3.74-4l.5,0-5.23,4.91.09-1.06,4.41,4.71-1.56-.14a39.16,39.16,0,0,1,4.7-3.89Z" transform="translate(-9.64 -11.91)"/>
			    <path d="M201.57,149.21a70.8,70.8,0,0,1-5.45,4.58l-.93.7-.62-.83-3.87-5.16-.47-.63.57-.42,5.74-4.3.3-.22.2.27c1.35,1.79,2.61,3.53,3.87,5.16Zm-1.34-1.58c-1.28-1.39-2.54-2.71-3.74-4l.5,0-5.23,4.91.09-1.06,4.41,4.71-1.56-.14a39.16,39.16,0,0,1,4.7-3.89Z" transform="translate(-9.64 -11.91)"/>
			    <path d="M85.54,109.85a70.79,70.79,0,0,1-5.45,4.58l-.93.7-.62-.83-3.87-5.16-.47-.63.57-.42,5.74-4.3.3-.22.2.27c1.35,1.79,2.61,3.53,3.87,5.16Zm-1.34-1.58c-1.28-1.39-2.54-2.71-3.74-4l.5,0-5.23,4.91.09-1.06,4.41,4.71-1.56-.14a39.16,39.16,0,0,1,4.7-3.89Z" transform="translate(-9.64 -11.91)"/>
			    <path d="M175.47,108.55a70.79,70.79,0,0,1-5.45,4.58l-.93.7-.62-.83-3.87-5.16-.47-.63.57-.42,5.74-4.3.3-.22.2.27c1.35,1.79,2.61,3.53,3.87,5.16ZM174.13,107c-1.28-1.39-2.54-2.71-3.74-4l.5,0-5.23,4.91.09-1.06,4.41,4.71-1.56-.14a39.16,39.16,0,0,1,4.7-3.89Z" transform="translate(-9.64 -11.91)"/>
			    <path d="M142.32,169.08a70.79,70.79,0,0,1-5.45,4.58l-.93.7-.62-.83-3.87-5.16-.47-.63.57-.42,5.74-4.3.3-.22.2.27c1.35,1.79,2.61,3.53,3.87,5.16ZM141,167.5c-1.28-1.39-2.54-2.71-3.74-4l.5,0-5.23,4.91.09-1.06L137,172.1l-1.56-.14a39.16,39.16,0,0,1,4.7-3.89Z" transform="translate(-9.64 -11.91)"/>
			    <path d="M112,127.8a70.79,70.79,0,0,1-5.45,4.58l-.93.7-.62-.83-3.87-5.16-.47-.63.57-.42,5.74-4.3.3-.22.2.27c1.35,1.79,2.61,3.53,3.87,5.16Zm-1.34-1.58c-1.28-1.39-2.54-2.71-3.74-4l.5,0-5.23,4.91.09-1.06,4.41,4.71-1.56-.14a39.16,39.16,0,0,1,4.7-3.89Z" transform="translate(-9.64 -11.91)"/>
			    <path d="M105.42,171a70.79,70.79,0,0,1-5.45,4.58l-.93.7-.62-.83-3.87-5.16-.47-.63.57-.42,5.74-4.3.3-.22.2.27c1.35,1.79,2.61,3.53,3.87,5.16Zm-1.34-1.58c-1.28-1.39-2.54-2.71-3.74-4l.5,0-5.23,4.91.09-1.06L100.1,174l-1.56-.14a39.16,39.16,0,0,1,4.7-3.89Z" transform="translate(-9.64 -11.91)"/>
			    <path d="M54.54,108.85a70.79,70.79,0,0,1-5.45,4.58l-.93.7-.62-.83-3.87-5.16-.47-.63.57-.42,5.74-4.3.3-.22.2.27c1.35,1.79,2.61,3.53,3.87,5.16Zm-1.34-1.58c-1.28-1.39-2.54-2.71-3.74-4l.5,0-5.23,4.91.09-1.06,4.41,4.71-1.56-.14a39.16,39.16,0,0,1,4.7-3.89Z" transform="translate(-9.64 -11.91)"/>
			    <path d="M47.74,194.8a70.79,70.79,0,0,1-5.45,4.58l-.93.7-.62-.83-3.87-5.16-.47-.63L37,193l5.74-4.3.3-.22.2.27c1.35,1.79,2.61,3.53,3.87,5.16Zm-1.34-1.58c-1.28-1.39-2.54-2.71-3.74-4l.5,0-5.23,4.91.09-1.06,4.41,4.71-1.56-.14a39.16,39.16,0,0,1,4.7-3.89Z" transform="translate(-9.64 -11.91)"/>
				<path d="M34.62,133.26a70.79,70.79,0,0,1-5.45,4.58l-.93.7-.63-.83-3.87-5.16-.47-.63.57-.42,5.74-4.3.3-.22.2.27c1.35,1.79,2.61,3.53,3.87,5.16Zm-1.34-1.58c-1.28-1.39-2.54-2.71-3.74-4l.5,0-5.23,4.91.09-1.06,4.41,4.71-1.56-.14a39.16,39.16,0,0,1,4.7-3.89Z" transform="translate(-9.64 -11.91)"/>
			</g>
		</g>
	</symbol>

	<!--Hurricane icon-->
	<symbol id="hurricane" viewBox="0 0 207 216.51">
		<title>Hurricane</title>
		<g>
			<polygon points="38.35 21.51 93.91 19.19 93.88 19.32 101.5 19.32 101.42 18.88 102 18.86 101.41 18.83 97.69 0.06 94.04 18.52 41.04 16.32 37.81 0 34 19.26 38.35 19.26 38.35 21.51"/>
		   	<path d="M95.33,106,93,121.42h4.55v3.09l58-3.17,0,.18h8l-.09-.61.61,0-.62,0-2.47-16.42,3.57-.08-.06.18H182.8l-.21-.61,1.41,0-1.43,0-6-17.34,6.49-.17-.06.18h16.92l-.19-.61,1.3,0-1.32,0-8.25-25.75-8.11,25.33-7.23-.19-2.48-7.14-2.44,7L65.63,82.39l-1.76-5.51,95.75-2.55-.05.18h16.36l-.19-.61,1.26,0-1.28,0-8-25.75-7.84,25.33-98-2.61L58.46,60l-3.4,10.62-8.95-.24-5.25-17h5.42v3.09l80.06-3.17,0,.18h11l-.13-.61.84,0-.86,0-5.35-25.75-5.26,25.33-76.38-3L45.49,27,40.35,51.76,39.18,48,31,74.42h9.35v3.09L53,77.17l-3,9.25h9.67v3.09l111-2.86-5.83,16.76-4.06-.1-1.24-8.23-1.23,8.17L98,101.83,97,95l-1,6.78-59-1.4L29.19,78,20,104.42H30.5v3.09Zm62.76-1.49-2.4,15.93-55.34-3-1.73-11.49Z" transform="translate(-20 -19)"/>
			<path d="M226.34,209.33l-4.15-22.26L218.1,209l-7.6-.34-1-10.56-1,10.47-33.31-1.47-.89-9.07-.88,9-14.49-.64L157.13,197,208,194.76l0,.15h8.52l-.1-.52.65,0-.66,0-4.15-22.26L208.1,194l-52-2.3-.87-4.67-.86,4.6-5.53-.24L146.94,181l33-1.69,0,.18h8.52l-.1-.61.65,0-.66,0-1.68-10.42,2.42-.08,0,.18h13.11l-.15-.61,1,0-1,0-6.39-25.75-6.29,25.33-2.82-.09-2.29-14.23-2.27,14.08-62.71-2.08L117.26,153l-1.93,12-17.22-.57-4-16.08,25.31-1L118,156.84h3.91v2.67l49.83-2.74,0,.15h6.84l-.08-.52.52,0-.53,0-1.62-10.83h2.44l-.12-.61.83,0-.85,0-2-9.87,28.81-.63-.07.18H225.7l-.23-.61,1.52,0-1.55,0-9.67-25.75-9.51,25.33-29.61-.65-2.81-13.68-2.79,13.55-80.19-1.76L88.44,119,86,130.77l-17.69-.39L59.92,108,50,134.42H61.34v3.09l23.4-.51L83,145.42h6.21v3.09l1.75-.07-5,20h7.49v3.09l20.89-.69L113,179.42h4.87v3.09l25.68-1.31L141,194.84h4.87v2.67l7.49-.33L151,209.84h4.87v2.67l17-.75-.89,9.09h2.56v2.67l8.88-.75L183,232.84h1.15v2.67l14.7-2.74v.15h2l0-.52.15,0-.16,0-.49-11,6.88-.58v.15h4.48l-.05-.52.34,0-.35,0-1-10.25,7.31-.32,0,.15h8.52l-.1-.52.65,0Zm-52.91-63.83L171.86,156l-47.54-2.62-.93-6.21,45.07-1.81,0,.18Zm-2.87-10.4-1.91,9.31-45.94-1.84-1-6.39ZM93,141.39l-.94-4.56,29-.64-.94,6.28ZM145.26,172l-.86,4.59-23.54-1.2-.77-4.76,61.59-2-1.59,9.84-34-1.74Zm38.4,46-7.52-.63-.56-5.72,8.37-.37Zm15.24,14-14-2.62-.3-6.69,14.79-1.24Zm.56-12.66L184.36,218l-.3-6.78,15.77-.7Zm7.87.66-7-.59-.39-8.82,8.4-.37Z" transform="translate(-20 -19)"/>
		</g>
	</symbol>
</svg>